<svg width="100" height="99" viewBox="0 0 100 99" fill="none" xmlns="http://www.w3.org/2000/svg">
<g filter="url(#filter0_i_14_2710)">
<path d="M59.6152 68.7344H40.3844C37.8343 68.7344 35.3886 69.8967 33.5853 71.9655C31.7821 74.0342 30.769 76.8401 30.769 79.7659V87.1201H37.1793V79.7659C37.1793 78.7906 37.517 77.8553 38.1181 77.1657C38.7191 76.4761 39.5344 76.0887 40.3844 76.0887H59.6152C60.4653 76.0887 61.2805 76.4761 61.8816 77.1657C62.4826 77.8553 62.8203 78.7906 62.8203 79.7659V87.1201H69.2306V79.7659C69.2306 76.8401 68.2175 74.0342 66.4143 71.9655C64.6111 69.8967 62.1654 68.7344 59.6152 68.7344ZM49.9998 65.0573C52.5355 65.0573 55.0142 64.1946 57.1225 62.5784C59.2308 60.9622 60.8741 58.6651 61.8444 55.9774C62.8148 53.2898 63.0687 50.3324 62.574 47.4792C62.0793 44.626 60.8583 42.0052 59.0653 39.9482C57.2723 37.8912 54.9879 36.4903 52.501 35.9228C50.014 35.3552 47.4363 35.6465 45.0936 36.7598C42.751 37.873 40.7487 39.7583 39.3399 42.1771C37.9312 44.5959 37.1793 47.4396 37.1793 50.3487C37.1793 54.2497 38.53 57.9909 40.9343 60.7492C43.3387 63.5076 46.5996 65.0573 49.9998 65.0573ZM49.9998 42.9944C51.2676 42.9944 52.507 43.4258 53.5612 44.2339C54.6153 45.0419 55.4369 46.1905 55.9221 47.5344C56.4073 48.8782 56.5342 50.3569 56.2869 51.7835C56.0396 53.2101 55.429 54.5205 54.5325 55.549C53.6361 56.5775 52.4939 57.2779 51.2504 57.5617C50.0069 57.8455 48.718 57.6998 47.5467 57.1432C46.3754 56.5866 45.3742 55.6439 44.6699 54.4345C43.9655 53.2251 43.5896 51.8033 43.5896 50.3487C43.5896 48.3982 44.2649 46.5276 45.4671 45.1485C46.6692 43.7693 48.2997 42.9944 49.9998 42.9944Z" fill="white"/>
<path d="M90.9091 10.6071H77.2727V7.07143C77.2727 5.19597 76.3149 3.39732 74.6101 2.07117C72.9052 0.745023 70.5929 0 68.1818 0H31.8182C29.4071 0 27.0948 0.745023 25.3899 2.07117C23.6851 3.39732 22.7273 5.19597 22.7273 7.07143V10.6071H9.09091C6.67985 10.6071 4.36754 11.3522 2.66267 12.6783C0.957789 14.0045 0 15.8031 0 17.6786V91.9286C0 93.804 0.957789 95.6027 2.66267 96.9288C4.36754 98.255 6.67985 99 9.09091 99H90.9091C93.3202 99 95.6325 98.255 97.3373 96.9288C99.0422 95.6027 100 93.804 100 91.9286V17.6786C100 15.8031 99.0422 14.0045 97.3373 12.6783C95.6325 11.3522 93.3202 10.6071 90.9091 10.6071ZM31.8182 7.07143H68.1818V21.2143H31.8182V7.07143ZM90.9091 91.9286H9.09091V17.6786H22.7273V28.2857H77.2727V17.6786H90.9091V91.9286Z" fill="white"/>
</g>
<defs>
<filter id="filter0_i_14_2710" x="0" y="0" width="100" height="103" filterUnits="userSpaceOnUse" color-interpolation-filters="sRGB">
<feFlood flood-opacity="0" result="BackgroundImageFix"/>
<feBlend mode="normal" in="SourceGraphic" in2="BackgroundImageFix" result="shape"/>
<feColorMatrix in="SourceAlpha" type="matrix" values="0 0 0 0 0 0 0 0 0 0 0 0 0 0 0 0 0 0 127 0" result="hardAlpha"/>
<feOffset dy="4"/>
<feGaussianBlur stdDeviation="2"/>
<feComposite in2="hardAlpha" operator="arithmetic" k2="-1" k3="1"/>
<feColorMatrix type="matrix" values="0 0 0 0 0 0 0 0 0 0 0 0 0 0 0 0 0 0 0.25 0"/>
<feBlend mode="normal" in2="shape" result="effect1_innerShadow_14_2710"/>
</filter>
</defs>
</svg>
