<svg width="73" height="71" viewBox="0 0 73 71" fill="none" xmlns="http://www.w3.org/2000/svg">
<g filter="url(#filter0_di_154_4)">
<ellipse cx="36.5" cy="31.5" rx="32.5" ry="31.5" fill="#21DFB1"/>
</g>
<path d="M38.3245 45H35.0245C28.8222 45 25.7218 45 23.6511 43.3294C23.322 43.0628 23.0161 42.7675 22.737 42.4468C20.9995 40.4556 20.9995 37.4687 20.9995 31.5C20.9995 25.5313 20.9995 22.5461 22.737 20.5532C23.0153 20.2337 23.32 19.9401 23.6511 19.6723C25.7218 18 28.8222 18 35.0245 18H39.9745C46.1769 18 49.2772 18 51.3463 19.6706C51.6785 19.9406 51.9838 20.2348 52.2621 20.5532C53.7339 22.2407 53.9599 24.642 53.9945 28.9688M48.2245 45V33.1875M42.4495 39.0938H53.9995M20.9995 26.4375H53.9995" stroke="white" stroke-width="1.5" stroke-linecap="round" stroke-linejoin="round"/>
<defs>
<filter id="filter0_di_154_4" x="0" y="0" width="73" height="71" filterUnits="userSpaceOnUse" color-interpolation-filters="sRGB">
<feFlood flood-opacity="0" result="BackgroundImageFix"/>
<feColorMatrix in="SourceAlpha" type="matrix" values="0 0 0 0 0 0 0 0 0 0 0 0 0 0 0 0 0 0 127 0" result="hardAlpha"/>
<feOffset dy="4"/>
<feGaussianBlur stdDeviation="2"/>
<feComposite in2="hardAlpha" operator="out"/>
<feColorMatrix type="matrix" values="0 0 0 0 0 0 0 0 0 0 0 0 0 0 0 0 0 0 0.25 0"/>
<feBlend mode="normal" in2="BackgroundImageFix" result="effect1_dropShadow_154_4"/>
<feBlend mode="normal" in="SourceGraphic" in2="effect1_dropShadow_154_4" result="shape"/>
<feColorMatrix in="SourceAlpha" type="matrix" values="0 0 0 0 0 0 0 0 0 0 0 0 0 0 0 0 0 0 127 0" result="hardAlpha"/>
<feOffset dy="4"/>
<feGaussianBlur stdDeviation="2"/>
<feComposite in2="hardAlpha" operator="arithmetic" k2="-1" k3="1"/>
<feColorMatrix type="matrix" values="0 0 0 0 0 0 0 0 0 0 0 0 0 0 0 0 0 0 0.25 0"/>
<feBlend mode="normal" in2="shape" result="effect2_innerShadow_154_4"/>
</filter>
</defs>
</svg>
