<svg width="25" height="22" viewBox="0 0 25 22" fill="none" xmlns="http://www.w3.org/2000/svg">
<path d="M17.1318 15.6385C16.3096 15.0455 16.0569 14.7243 15.6621 14.2223L15.6493 14.2061L15.6488 14.2054L15.3879 13.8749L15.0613 13.4612L14.6654 13.809C13.783 14.5842 13.06 15.0602 12.2951 15.3492C11.5305 15.6381 10.6874 15.754 9.54384 15.754C8.23484 15.754 7.1213 15.4067 6.34461 14.762C5.5806 14.1279 5.09383 13.1669 5.09383 11.8223C5.09383 9.7753 6.36733 8.35776 8.29743 7.64173L8.29744 7.64174L8.30058 7.64055C9.7273 7.10032 11.657 6.92577 13.4168 6.77076C13.7524 6.74199 14.0771 6.71276 14.3909 6.68307L14.8438 6.64023V6.18529V5.60676C14.844 5.58751 14.8442 5.56792 14.8443 5.54802C14.8494 4.9638 14.8567 4.11068 14.3366 3.44829C13.7932 2.74654 12.8307 2.51672 12.086 2.51672C10.7121 2.51672 9.29085 3.13411 8.93876 4.6085L8.93868 4.60848L8.93668 4.61759C8.92916 4.65189 8.90811 4.69126 8.88023 4.71846C8.86627 4.73208 8.85508 4.73871 8.84681 4.74196L5.71958 4.4539C5.69612 4.4481 5.67425 4.44038 5.65581 4.43168C5.6523 4.43002 5.64908 4.4284 5.64614 4.42685C5.98424 2.95015 6.92171 1.98314 8.16733 1.37087C9.43814 0.746226 11.0185 0.5 12.547 0.5C14.119 0.5 16.0739 0.86586 17.2085 1.80198L17.2084 1.80202L17.2137 1.80622C18.4811 2.82369 18.4972 4.12249 18.4845 5.85374L18.4845 5.85568L18.4829 6.30584V6.30757V10.742C18.4829 12.1157 19.098 12.8286 19.6451 13.4628L19.6545 13.4735L19.6559 13.4752L19.8475 13.6993C19.8655 13.7211 19.8787 13.7406 19.8881 13.757C19.1536 14.2912 18.4255 14.8318 17.7038 15.3787L17.6957 15.3718L17.3737 15.6171C17.3297 15.6506 17.2299 15.6715 17.1318 15.6385ZM14.8392 8.46564V7.96564H14.3392C13.1311 7.96564 11.8127 8.07368 10.7813 8.53133C10.2577 8.76366 9.78689 9.09518 9.44788 9.56754C9.10564 10.0444 8.92196 10.6313 8.92196 11.3292C8.92196 12.0429 9.13847 12.691 9.58855 13.1643C10.0419 13.641 10.6838 13.8892 11.4313 13.8892C12.5468 13.8892 13.5305 13.2975 14.1378 12.373C14.8425 11.3081 14.8409 10.2916 14.8392 9.27312L14.8392 9.23158V9.23083V8.46564ZM11.8282 21C7.60864 21 4.11455 19.1441 2.06764 17.6339C3.85678 18.5181 6.02387 19.4321 8.6342 19.8847C11.8634 20.4445 15.746 20.2953 20.4276 18.5663C19.9772 18.8723 19.3431 19.2482 18.5324 19.6134C16.9335 20.3337 14.6719 21 11.8282 21ZM0.471676 16.2588C0.470227 16.2569 0.469635 16.2559 0.469701 16.2559C0.469767 16.2559 0.470492 16.2569 0.471676 16.2588Z" fill="black" stroke="black"/>
<path d="M23.3469 16.7263C23.2752 16.6458 23.1904 16.5832 23.1013 16.534C23.3249 16.5535 23.5158 16.583 23.6582 16.6197C23.7014 16.6308 23.7345 16.6413 23.7593 16.65C23.7618 16.7473 23.749 16.8886 23.7164 17.064C23.6721 17.3017 23.5973 17.5699 23.5036 17.8246C23.514 17.7734 23.5232 17.7229 23.5307 17.6734C23.5527 17.53 23.5649 17.3749 23.55 17.2256C23.5357 17.0825 23.4909 16.8885 23.3475 16.727L23.3469 16.7263Z" fill="black" stroke="black"/>
</svg>
