<svg width="103" height="100" viewBox="0 0 103 100" fill="none" xmlns="http://www.w3.org/2000/svg">
<g filter="url(#filter0_i_14_2182)">
<path d="M85.4735 41.1439V87.0258C85.4735 88.3356 85.2068 89.6326 84.6888 90.8428C84.1707 92.0529 83.4113 93.1525 82.454 94.0787C81.4967 95.0049 80.3602 95.7396 79.1095 96.2408C77.8587 96.7421 76.5181 97.0001 75.1643 97.0001H13.3092C10.575 97.0001 7.95284 95.9492 6.01949 94.0787C4.08614 92.2081 3 89.6711 3 87.0258V27.1799C3 24.5345 4.08614 21.9975 6.01949 20.127C7.95284 18.2564 10.575 17.2056 13.3092 17.2056H56.4738" stroke="white" stroke-width="6" stroke-linecap="round" stroke-linejoin="round"/>
<path d="M99.7681 3.36471L99.7721 3.36894C100.058 3.67137 100.132 4.26565 99.6513 4.73079C99.6509 4.73121 99.6504 4.73164 99.65 4.73207L97.1657 7.12371L95.6402 5.65043L98.0496 3.33067L98.0522 3.3281C98.1569 3.22707 98.2873 3.14232 98.4381 3.08402C98.5891 3.02566 98.7541 2.99643 98.9219 3.00035C99.0898 3.00426 99.2523 3.04112 99.399 3.1059C99.5454 3.1706 99.67 3.26037 99.7681 3.36471ZM97.7944 7.73093L97.7874 7.72424C97.7898 7.72645 97.7921 7.72869 97.7944 7.73093ZM43.7603 58.8758L41.242 59.6945L42.0248 57.4385L87.9712 13.0634L89.494 14.5442L43.7603 58.8758Z" fill="#4849F0" stroke="white" stroke-width="6"/>
</g>
<defs>
<filter id="filter0_i_14_2182" x="0" y="0" width="103" height="104" filterUnits="userSpaceOnUse" color-interpolation-filters="sRGB">
<feFlood flood-opacity="0" result="BackgroundImageFix"/>
<feBlend mode="normal" in="SourceGraphic" in2="BackgroundImageFix" result="shape"/>
<feColorMatrix in="SourceAlpha" type="matrix" values="0 0 0 0 0 0 0 0 0 0 0 0 0 0 0 0 0 0 127 0" result="hardAlpha"/>
<feOffset dy="4"/>
<feGaussianBlur stdDeviation="2"/>
<feComposite in2="hardAlpha" operator="arithmetic" k2="-1" k3="1"/>
<feColorMatrix type="matrix" values="0 0 0 0 0 0 0 0 0 0 0 0 0 0 0 0 0 0 0.25 0"/>
<feBlend mode="normal" in2="shape" result="effect1_innerShadow_14_2182"/>
</filter>
</defs>
</svg>
