<svg width="28" height="27" viewBox="0 0 28 27" fill="none" xmlns="http://www.w3.org/2000/svg">
<path d="M1 7.1875C1 6.08375 1 5.5325 1.09181 5.0725C1.28752 4.0848 1.79104 3.17625 2.53667 2.46538C3.2823 1.75452 4.23542 1.27434 5.27168 1.0875C5.75564 1 6.33534 1 7.49212 1C7.99837 1 8.25281 1 8.49675 1.02125C9.54736 1.11529 10.5438 1.5091 11.3559 2.15125C11.5448 2.3 11.7231 2.47 12.0825 2.8125L12.8038 3.5C13.8741 4.52 14.4092 5.03 15.0492 5.36875C15.401 5.55562 15.7742 5.70326 16.1614 5.80875C16.867 6 17.6238 6 19.136 6H19.6265C23.0784 6 24.8057 6 25.9271 6.9625C26.0311 7.05 26.1291 7.14333 26.2209 7.2425C27.2308 8.31125 27.2308 9.9575 27.2308 13.2475V16C27.2308 20.7137 27.2308 23.0712 25.6936 24.535C24.1565 25.9987 21.6843 26 16.7385 26H11.4923C6.5465 26 4.07293 26 2.53712 24.535C1.00131 23.07 1 20.7137 1 16V7.1875Z" stroke="#4849F0" stroke-width="1.5"/>
</svg>
