<svg width="25" height="24" viewBox="0 0 25 24" fill="none" xmlns="http://www.w3.org/2000/svg">
<path d="M19.6875 6.5H2.4375M19.6875 6.5C20.0687 6.5 20.4344 6.64487 20.704 6.90273C20.9736 7.16059 21.125 7.51033 21.125 7.875V11.45M19.6875 6.5L13.9375 1M2.4375 6.5C2.05625 6.5 1.69062 6.64487 1.42103 6.90273C1.15145 7.16059 1 7.51033 1 7.875V21.625C1 21.9897 1.15145 22.3394 1.42103 22.5973C1.69062 22.8551 2.05625 23 2.4375 23H19.6875C20.0687 23 20.4344 22.8551 20.704 22.5973C20.9736 22.3394 21.125 21.9897 21.125 21.625V18.05M2.4375 6.5L8.1875 1L13.9375 6.5M22.5625 12C22.9437 12 23.3094 12.1449 23.579 12.4027C23.8486 12.6606 24 13.0103 24 13.375V16.125C24 16.4897 23.8486 16.8394 23.579 17.0973C23.3094 17.3551 22.9437 17.5 22.5625 17.5H16.8125C16.05 17.5 15.3187 17.2103 14.7796 16.6945C14.2404 16.1788 13.9375 15.4793 13.9375 14.75C13.9375 14.0207 14.2404 13.3212 14.7796 12.8055C15.3187 12.2897 16.05 12 16.8125 12" stroke="#4849F0" stroke-linecap="round" stroke-linejoin="round"/>
</svg>
