<svg width="80" height="80" viewBox="0 0 80 80" fill="none" xmlns="http://www.w3.org/2000/svg">
<g filter="url(#filter0_i_14_643)">
<path d="M40 0C17.9167 0 0 17.9167 0 40C0 62.1 17.9167 80 40 80C62.1 80 80 62.1 80 40C80 17.9 62.1 0 40 0ZM40 10C56.5667 10 70 23.4333 70 40C70 56.5667 56.5667 70 40 70C23.4333 70 10 56.5667 10 40C10 23.4333 23.4333 10 40 10ZM55.2167 20.7C54.1333 20.7 53.1333 21.1 52.4167 22.0667C43.75 33.75 40.9167 38.15 34.75 50.3667C33.35 48.5167 23.8167 38.3 19.1 34.6833C16.7333 32.8667 12.2167 39.2167 13.8333 40.8667C21.1 48.35 34.0167 65 36.1167 64.8333C39.6833 64.55 48.6333 42.0333 60.9167 25.8833C62.25 24.15 58.4167 20.6667 55.2167 20.7Z" fill="white"/>
</g>
<defs>
<filter id="filter0_i_14_643" x="0" y="0" width="80" height="84" filterUnits="userSpaceOnUse" color-interpolation-filters="sRGB">
<feFlood flood-opacity="0" result="BackgroundImageFix"/>
<feBlend mode="normal" in="SourceGraphic" in2="BackgroundImageFix" result="shape"/>
<feColorMatrix in="SourceAlpha" type="matrix" values="0 0 0 0 0 0 0 0 0 0 0 0 0 0 0 0 0 0 127 0" result="hardAlpha"/>
<feOffset dy="4"/>
<feGaussianBlur stdDeviation="2"/>
<feComposite in2="hardAlpha" operator="arithmetic" k2="-1" k3="1"/>
<feColorMatrix type="matrix" values="0 0 0 0 0 0 0 0 0 0 0 0 0 0 0 0 0 0 0.25 0"/>
<feBlend mode="normal" in2="shape" result="effect1_innerShadow_14_643"/>
</filter>
</defs>
</svg>
