<svg width="100" height="100" viewBox="0 0 100 100" fill="none" xmlns="http://www.w3.org/2000/svg">
<g filter="url(#filter0_i_14_740)">
<path d="M5.17241 39.1323H17.2414V78.2615H8.62069C8.16342 78.2615 7.72488 78.4906 7.40154 78.8982C7.0782 79.3059 6.89655 79.8588 6.89655 80.4354C6.89655 81.0119 7.0782 81.5648 7.40154 81.9725C7.72488 82.3802 8.16342 82.6092 8.62069 82.6092H91.3793C91.8366 82.6092 92.2751 82.3802 92.5985 81.9725C92.9218 81.5648 93.1034 81.0119 93.1034 80.4354C93.1034 79.8588 92.9218 79.3059 92.5985 78.8982C92.2751 78.4906 91.8366 78.2615 91.3793 78.2615H82.7586V39.1323H94.8276C95.2036 39.1334 95.5695 38.9795 95.8697 38.694C96.1699 38.4086 96.3878 38.0073 96.4903 37.5512C96.5928 37.0951 96.5743 36.6093 96.4375 36.1677C96.3008 35.7261 96.0533 35.353 95.7328 35.1052L50.9052 0.323681C50.6331 0.112067 50.3197 0 50 0C49.6803 0 49.3669 0.112067 49.0948 0.323681L4.26724 35.1052C3.94672 35.353 3.69923 35.7261 3.56246 36.1677C3.4257 36.6093 3.40716 37.0951 3.50968 37.5512C3.61219 38.0073 3.83014 38.4086 4.13031 38.694C4.43049 38.9795 4.79644 39.1334 5.17241 39.1323ZM20.6897 39.1323H37.931V78.2615H20.6897V39.1323ZM58.6207 39.1323V78.2615H41.3793V39.1323H58.6207ZM79.3103 78.2615H62.069V39.1323H79.3103V78.2615ZM50 4.73116L88.7371 34.7846H11.2629L50 4.73116ZM100 97.8261C100 98.4027 99.8184 98.9556 99.495 99.3633C99.1717 99.771 98.7331 100 98.2759 100H1.72414C1.26687 100 0.828327 99.771 0.504988 99.3633C0.18165 98.9556 0 98.4027 0 97.8261C0 97.2496 0.18165 96.6967 0.504988 96.289C0.828327 95.8813 1.26687 95.6523 1.72414 95.6523H98.2759C98.7331 95.6523 99.1717 95.8813 99.495 96.289C99.8184 96.6967 100 97.2496 100 97.8261Z" fill="white"/>
</g>
<defs>
<filter id="filter0_i_14_740" x="0" y="0" width="100" height="104" filterUnits="userSpaceOnUse" color-interpolation-filters="sRGB">
<feFlood flood-opacity="0" result="BackgroundImageFix"/>
<feBlend mode="normal" in="SourceGraphic" in2="BackgroundImageFix" result="shape"/>
<feColorMatrix in="SourceAlpha" type="matrix" values="0 0 0 0 0 0 0 0 0 0 0 0 0 0 0 0 0 0 127 0" result="hardAlpha"/>
<feOffset dy="4"/>
<feGaussianBlur stdDeviation="2"/>
<feComposite in2="hardAlpha" operator="arithmetic" k2="-1" k3="1"/>
<feColorMatrix type="matrix" values="0 0 0 0 0 0 0 0 0 0 0 0 0 0 0 0 0 0 0.25 0"/>
<feBlend mode="normal" in2="shape" result="effect1_innerShadow_14_740"/>
</filter>
</defs>
</svg>
