<svg width="100" height="100" viewBox="0 0 100 100" fill="none" xmlns="http://www.w3.org/2000/svg">
<g filter="url(#filter0_i_14_757)">
<path d="M52.9663 97.4444L52.9113 97.4536L52.5563 97.6145L52.4563 97.6329L52.3863 97.6145L52.0313 97.4536C51.978 97.4383 51.938 97.446 51.9113 97.4766L51.8913 97.5226L51.8063 99.4899L51.8313 99.5818L51.8813 99.6416L52.4013 99.9817L52.4763 100L52.5363 99.9817L53.0563 99.6416L53.1163 99.568L53.1363 99.4899L53.0513 97.5272C53.038 97.4781 53.0097 97.4506 52.9663 97.4444ZM54.2913 96.925L54.2263 96.9342L53.3013 97.3617L53.2513 97.4077L53.2363 97.4582L53.3263 99.4347L53.3513 99.4899L53.3913 99.5221L54.3963 99.9495C54.4597 99.9649 54.508 99.9526 54.5413 99.9128L54.5613 99.8484L54.3913 97.0261C54.3747 96.971 54.3413 96.9373 54.2913 96.925ZM50.7163 96.9342C50.6943 96.9219 50.668 96.918 50.6428 96.9231C50.6177 96.9282 50.5957 96.9421 50.5813 96.9618L50.5513 97.0261L50.3813 99.8484C50.3847 99.9036 50.413 99.9404 50.4663 99.9587L50.5413 99.9495L51.5463 99.5221L51.5963 99.4853L51.6163 99.4347L51.7013 97.4582L51.6863 97.4031L51.6363 97.3571L50.7163 96.9342Z" fill="white"/>
<path d="M53.35 0.728319L95.85 22.5619C97.0976 23.1345 98.1469 24.0155 98.8799 25.106C99.613 26.1965 100.001 27.4532 100 28.7351V35.3541C100 38.5258 97.2 41.0998 93.75 41.0998H90V77.8723H95C96.3261 77.8723 97.5979 78.3565 98.5355 79.2186C99.4732 80.0806 100 81.2497 100 82.4688C100 83.6879 99.4732 84.857 98.5355 85.7191C97.5979 86.5811 96.3261 87.0654 95 87.0654H5C3.67392 87.0654 2.40215 86.5811 1.46447 85.7191C0.526784 84.857 0 83.6879 0 82.4688C0 81.2497 0.526784 80.0806 1.46447 79.2186C2.40215 78.3565 3.67392 77.8723 5 77.8723H10V41.0998H6.25C2.8 41.0998 0 38.5258 0 35.3541V28.7351C0 26.3357 1.35 24.1294 3.53 22.8791L46.645 0.728319C47.6867 0.249359 48.8353 0 50 0C51.1647 0 52.3083 0.249359 53.35 0.728319ZM80 41.0998H20V77.8723H35V50.2929H45V77.8723H55V50.2929H65V77.8723H80V41.0998ZM50 9.46636L10 30.1509V31.9067H90V30.1509L50 9.46636ZM50 18.1171C51.3261 18.1171 52.5979 18.6014 53.5355 19.4634C54.4732 20.3254 55 21.4945 55 22.7136C55 23.9327 54.4732 25.1019 53.5355 25.9639C52.5979 26.8259 51.3261 27.3102 50 27.3102C48.6739 27.3102 47.4021 26.8259 46.4645 25.9639C45.5268 25.1019 45 23.9327 45 22.7136C45 21.4945 45.5268 20.3254 46.4645 19.4634C47.4021 18.6014 48.6739 18.1171 50 18.1171Z" fill="white"/>
</g>
<defs>
<filter id="filter0_i_14_757" x="0" y="0" width="100" height="104" filterUnits="userSpaceOnUse" color-interpolation-filters="sRGB">
<feFlood flood-opacity="0" result="BackgroundImageFix"/>
<feBlend mode="normal" in="SourceGraphic" in2="BackgroundImageFix" result="shape"/>
<feColorMatrix in="SourceAlpha" type="matrix" values="0 0 0 0 0 0 0 0 0 0 0 0 0 0 0 0 0 0 127 0" result="hardAlpha"/>
<feOffset dy="4"/>
<feGaussianBlur stdDeviation="2"/>
<feComposite in2="hardAlpha" operator="arithmetic" k2="-1" k3="1"/>
<feColorMatrix type="matrix" values="0 0 0 0 0 0 0 0 0 0 0 0 0 0 0 0 0 0 0.25 0"/>
<feBlend mode="normal" in2="shape" result="effect1_innerShadow_14_757"/>
</filter>
</defs>
</svg>
