<svg width="21" height="15" viewBox="0 0 21 15" fill="none" xmlns="http://www.w3.org/2000/svg">
<path d="M3.25063 0H17.3367C18.1988 0 19.0257 0.31386 19.6353 0.872534C20.2449 1.43121 20.5874 2.18893 20.5874 2.97902V11.9161C20.5874 12.7061 20.2449 13.4639 19.6353 14.0225C19.0257 14.5812 18.1988 14.8951 17.3367 14.8951H3.25063C2.38851 14.8951 1.5617 14.5812 0.952089 14.0225C0.342477 13.4639 0 12.7061 0 11.9161V2.97902C0 2.18893 0.342477 1.43121 0.952089 0.872534C1.5617 0.31386 2.38851 0 3.25063 0ZM3.25063 0.993005C2.70886 0.993005 2.2321 1.16182 1.8637 1.45972L10.2937 6.45454L18.7237 1.45972C18.3553 1.16182 17.8785 0.993005 17.3367 0.993005H3.25063ZM10.2937 7.65607L1.22441 2.26405C1.13772 2.48251 1.08354 2.73076 1.08354 2.97902V11.9161C1.08354 12.4428 1.31186 12.9479 1.71827 13.3204C2.12468 13.6928 2.67589 13.9021 3.25063 13.9021H17.3367C17.9115 13.9021 18.4627 13.6928 18.8691 13.3204C19.2755 12.9479 19.5038 12.4428 19.5038 11.9161V2.97902C19.5038 2.73076 19.4496 2.48251 19.3629 2.26405L10.2937 7.65607Z" fill="#A4A4A4"/>
</svg>
