<svg width="26" height="17" viewBox="0 0 26 17" fill="none" xmlns="http://www.w3.org/2000/svg">
<path d="M26 3.26923C26 3.00769 25.8267 2.81154 25.5667 2.68077L19.5 0.0653846C19.3267 -6.70552e-08 19.24 0 19.0667 0C18.8933 0 18.8067 -6.70552e-08 18.6333 0.0653846L13 2.48462L7.36667 0.0653846C7.19333 -6.70552e-08 7.10667 0 6.93333 0C6.76 0 6.67333 -6.70552e-08 6.5 0.0653846L0.433333 2.68077C0.173333 2.81154 0 3.00769 0 3.26923V16.3462C0 16.7385 0.346667 17 0.866667 17C1.04 17 1.12667 16.9346 1.3 16.9346L6.93333 14.5154L12.5667 16.9346C12.74 17 12.8267 17 13 17C13.1733 17 13.26 17 13.4333 16.9346L19.0667 14.5154L24.7 16.9346C24.7867 17 24.96 17 25.1333 17C25.6533 17 26 16.7385 26 16.3462V3.26923ZM1.73333 3.66154L6.06667 1.76538V13.3385L1.73333 15.2346V3.66154ZM12.1333 15.2346L7.8 13.3385V1.76538L12.1333 3.66154V15.2346ZM18.2 13.3385L13.8667 15.2346V3.66154L18.2 1.76538V13.3385ZM19.9333 13.3385V1.76538L24.2667 3.66154V15.2346L19.9333 13.3385Z" fill="#4849F0"/>
</svg>
