<svg width="13" height="11" viewBox="0 0 13 11" fill="none" xmlns="http://www.w3.org/2000/svg">
<path d="M11.1712 2.09299C11.3961 2.09288 11.6124 2.00623 11.7752 1.85101C11.938 1.69578 12.0348 1.48388 12.0456 1.2592C12.0564 1.03453 11.9804 0.814308 11.8332 0.644173C11.6861 0.474037 11.4791 0.367029 11.2553 0.345325L11.1712 0.341237H1.82851C1.60358 0.341349 1.38731 0.427994 1.22452 0.583218C1.06172 0.738441 0.964892 0.950346 0.954082 1.17502C0.943273 1.3997 1.01932 1.61992 1.16645 1.79005C1.31359 1.96019 1.52054 2.06719 1.74443 2.0889L1.82851 2.09299H11.1712ZM11.1712 6.1804C11.4035 6.1804 11.6263 6.08813 11.7905 5.92387C11.9548 5.75961 12.0471 5.53683 12.0471 5.30453C12.0471 5.07223 11.9548 4.84945 11.7905 4.68519C11.6263 4.52093 11.4035 4.42865 11.1712 4.42865H1.82851C1.59622 4.42865 1.37343 4.52093 1.20917 4.68519C1.04492 4.84945 0.952637 5.07223 0.952637 5.30453C0.952637 5.53683 1.04492 5.75961 1.20917 5.92387C1.37343 6.08813 1.59622 6.1804 1.82851 6.1804H11.1712ZM11.1712 10.2678C11.4035 10.2678 11.6263 10.1755 11.7905 10.0113C11.9548 9.84703 12.0471 9.62424 12.0471 9.39195C12.0471 9.15965 11.9548 8.93687 11.7905 8.77261C11.6263 8.60835 11.4035 8.51607 11.1712 8.51607H1.82851C1.59622 8.51607 1.37343 8.60835 1.20917 8.77261C1.04492 8.93687 0.952637 9.15965 0.952637 9.39195C0.952637 9.62424 1.04492 9.84703 1.20917 10.0113C1.37343 10.1755 1.59622 10.2678 1.82851 10.2678H11.1712Z" fill="#4849F0"/>
</svg>
