<svg width="26" height="20" viewBox="0 0 26 20" fill="none" xmlns="http://www.w3.org/2000/svg">
<path d="M15.7171 9.41424L16.237 9.73065L16.7569 9.41422C17.1978 9.14587 17.6982 9.00364 18.2071 8.99997C18.6499 8.99683 19.0885 9.09869 19.4887 9.2988C19.8891 9.49897 20.2413 9.79259 20.5164 10.1586C20.7916 10.5248 20.9818 10.953 21.0704 11.4103L22.0521 11.2201L21.0704 11.4103C21.159 11.8676 21.1433 12.3399 21.0247 12.7896C20.906 13.2393 20.6881 13.6528 20.3898 13.9983C20.0916 14.3436 19.7214 14.6116 19.3093 14.7831C18.8973 14.9546 18.4533 15.0257 18.0117 14.9916C17.57 14.9576 17.1405 14.8192 16.7568 14.5857L16.237 14.2694L15.7171 14.5858C15.2779 14.8531 14.7795 14.9952 14.2726 14.9999C13.7656 15.0045 13.265 14.8715 12.8213 14.6124C12.3775 14.3532 12.0053 13.9762 11.7452 13.5172C11.4849 13.0581 11.3469 12.5345 11.3469 12C11.3469 11.4655 11.4849 10.9419 11.7452 10.4828C12.0053 10.0238 12.3775 9.64677 12.8213 9.38755C13.265 9.12845 13.7656 8.99547 14.2726 9.00012C14.7795 9.00477 15.2779 9.14692 15.7171 9.41424ZM14.6082 14.3295L15.521 14.2497V13.3333V13.2267V13.054L15.4631 12.8914C15.2461 12.2816 15.2461 11.6117 15.4631 11.0019L15.8968 9.78322L14.6082 9.67047C14.4911 9.66023 14.3735 9.65911 14.2564 9.66709C13.6541 9.67865 13.0839 9.92918 12.6648 10.3591C12.2363 10.7985 12 11.3892 12 12C12 12.6108 12.2363 13.2015 12.6648 13.6409C13.0839 14.0708 13.6541 14.3214 14.2564 14.3329C14.3735 14.3409 14.4911 14.3398 14.6082 14.3295ZM3.9 1H22.1C22.8608 1 23.5958 1.30976 24.1417 1.86967C24.6885 2.43045 25 3.1963 25 4V16C25 16.8037 24.6885 17.5695 24.1417 18.1303C23.5958 18.6902 22.8608 19 22.1 19H3.9C3.13916 19 2.4042 18.6902 1.85828 18.1303C1.31153 17.5695 1 16.8037 1 16V4C1 3.1963 1.31153 2.43045 1.85828 1.86967C2.4042 1.30976 3.13916 1 3.9 1ZM20.1188 10.7134L19.2809 11.2592L16.925 11.7399L15.9433 11.5495C15.9433 11.5495 15.9433 11.5495 15.9433 11.5495C15.8564 11.9972 15.9008 12.4615 16.0717 12.8847C16.2427 13.3081 16.534 13.6741 16.9125 13.9335C17.2913 14.1931 17.7394 14.3333 18.2 14.3333C18.8183 14.3333 19.406 14.0812 19.8352 13.6409C20.2637 13.2015 20.5 12.6108 20.5 12C20.5 11.5441 20.3683 11.0964 20.1188 10.7134ZM23.7352 17.6409C24.1637 17.2015 24.4 16.6108 24.4 16V4C24.4 3.38922 24.1637 2.79851 23.7352 2.35909C23.306 1.91881 22.7183 1.66667 22.1 1.66667H3.9C3.28172 1.66667 2.69403 1.91881 2.26476 2.35909C1.83633 2.79851 1.6 3.38921 1.6 4V16C1.6 16.6108 1.83633 17.2015 2.26476 17.6409C2.69403 18.0812 3.28171 18.3333 3.9 18.3333H22.1C22.7183 18.3333 23.306 18.0812 23.7352 17.6409Z" stroke="#4849F0" stroke-width="2"/>
</svg>
