<svg width="26" height="26" viewBox="0 0 26 26" fill="none" xmlns="http://www.w3.org/2000/svg">
<path d="M3.1252 16.2786L7.5478 11.856L11.2255 15.5337L15.3296 11.4296L12.9987 9.0987H19.4987V15.5987L17.1678 13.2678L11.2255 19.2101L7.5478 15.5337L4.3316 18.7499C5.79204 20.948 8.03351 22.5087 10.6018 23.1157C13.1701 23.7228 15.8731 23.3307 18.1631 22.019C20.4531 20.7073 22.1588 18.5741 22.9345 16.0516C23.7102 13.5292 23.498 10.8061 22.3408 8.43431C21.1836 6.0625 19.168 4.21932 16.7025 3.27827C14.2369 2.33722 11.5058 2.36869 9.06254 3.36631C6.61932 4.36393 4.64672 6.25307 3.54449 8.65092C2.44226 11.0488 2.29284 13.776 3.1265 16.2799M1.1284 18.3053L1.1154 18.2923L1.1206 18.2871C0.380809 16.6227 -0.000973007 14.8214 1.86227e-06 13C1.86227e-06 5.8201 5.8201 0 13 0C20.1799 0 26 5.8201 26 13C26 20.1799 20.1799 26 13 26C7.709 26 3.159 22.841 1.1284 18.3053Z" fill="#4849F0"/>
</svg>
