<svg width="26" height="25" viewBox="0 0 26 25" fill="none" xmlns="http://www.w3.org/2000/svg">
<path d="M15.5 17.3571H10.5C9.83696 17.3571 9.20107 17.6506 8.73223 18.1731C8.26339 18.6955 8 19.404 8 20.1429V22H9.66667V20.1429C9.66667 19.8966 9.75446 19.6604 9.91074 19.4863C10.067 19.3121 10.279 19.2143 10.5 19.2143H15.5C15.721 19.2143 15.933 19.3121 16.0893 19.4863C16.2455 19.6604 16.3333 19.8966 16.3333 20.1429V22H18V20.1429C18 19.404 17.7366 18.6955 17.2678 18.1731C16.7989 17.6506 16.163 17.3571 15.5 17.3571ZM13 16.4286C13.6593 16.4286 14.3037 16.2107 14.8519 15.8026C15.4001 15.3945 15.8273 14.8144 16.0796 14.1357C16.3319 13.457 16.3979 12.7102 16.2693 11.9897C16.1407 11.2692 15.8232 10.6073 15.357 10.0879C14.8908 9.56844 14.2969 9.21469 13.6503 9.07137C13.0037 8.92805 12.3335 9.00161 11.7244 9.28273C11.1153 9.56386 10.5947 10.0399 10.2284 10.6507C9.86216 11.2616 9.66667 11.9797 9.66667 12.7143C9.66667 13.6994 10.0179 14.6441 10.643 15.3407C11.2681 16.0372 12.1159 16.4286 13 16.4286ZM13 10.8571C13.3296 10.8571 13.6519 10.9661 13.926 11.1701C14.2 11.3742 14.4137 11.6642 14.5398 12.0036C14.6659 12.3429 14.699 12.7163 14.6346 13.0766C14.5703 13.4368 14.4116 13.7678 14.1785 14.0275C13.9454 14.2872 13.6485 14.4641 13.3252 14.5357C13.0018 14.6074 12.6667 14.5706 12.3622 14.4301C12.0577 14.2895 11.7974 14.0515 11.6142 13.7461C11.4311 13.4407 11.3333 13.0816 11.3333 12.7143C11.3333 12.2217 11.5089 11.7494 11.8215 11.4011C12.134 11.0528 12.558 10.8571 13 10.8571Z" fill="#4849F0"/>
<path d="M23.6364 2.67857H20.0909V1.78571C20.0909 1.31211 19.8419 0.85791 19.3986 0.523023C18.9553 0.188137 18.3541 0 17.7273 0H8.27273C7.64585 0 7.04465 0.188137 6.60138 0.523023C6.15812 0.85791 5.90909 1.31211 5.90909 1.78571V2.67857H2.36364C1.73676 2.67857 1.13556 2.86671 0.692293 3.20159C0.249025 3.53648 0 3.99068 0 4.46429V23.2143C0 23.6879 0.249025 24.1421 0.692293 24.477C1.13556 24.8119 1.73676 25 2.36364 25H23.6364C24.2632 25 24.8644 24.8119 25.3077 24.477C25.751 24.1421 26 23.6879 26 23.2143V4.46429C26 3.99068 25.751 3.53648 25.3077 3.20159C24.8644 2.86671 24.2632 2.67857 23.6364 2.67857ZM8.27273 1.78571H17.7273V5.35714H8.27273V1.78571ZM23.6364 23.2143H2.36364V4.46429H5.90909V7.14286H20.0909V4.46429H23.6364V23.2143Z" fill="#4849F0"/>
</svg>
