<svg width="26" height="25" viewBox="0 0 26 25" fill="none" xmlns="http://www.w3.org/2000/svg">
<path d="M9.90476 5.55556V2.77778C9.90476 2.04107 10.1656 1.33453 10.63 0.813593C11.0944 0.29266 11.7242 0 12.381 0H23.5238C24.1805 0 24.8104 0.29266 25.2747 0.813593C25.7391 1.33453 26 2.04107 26 2.77778L26 22.2222C26 22.9589 25.7391 23.6655 25.2747 24.1864C24.8104 24.7073 24.1805 25 23.5238 25H12.381C11.7242 25 11.0944 24.7073 10.63 24.1864C10.1656 23.6655 9.90476 22.9589 9.90476 22.2222V19.4444H12.381V22.2222H23.5238L23.5238 2.77778H12.381L12.381 5.55556L9.90476 5.55556ZM6.80952 20.1389L8.56019 18.175L4.73943 13.8889H17.3333V11.1111H4.73943L8.56019 6.825L6.80952 4.86111L0 12.5L6.80952 20.1389Z" fill="#FF0000"/>
</svg>
