<svg width="26" height="28" viewBox="0 0 26 28" fill="none" xmlns="http://www.w3.org/2000/svg">
<path d="M13 19.8331C12.491 19.8333 11.9932 19.6994 11.5682 19.448C11.1433 19.1967 10.8098 18.8389 10.6093 18.4191C10.1898 18.3301 9.77694 18.2179 9.373 18.083L9.3509 18.076C8.16475 17.6765 7.06994 17.0858 6.1204 16.333C4.84821 15.3258 3.86986 14.0546 3.27068 12.6302C2.6715 11.2058 2.46966 9.67152 2.68278 8.16108C2.8959 6.65063 3.51749 5.20991 4.49337 3.96452C5.46924 2.71914 6.76977 1.70691 8.28154 1.01609C9.79332 0.325275 11.4704 -0.0231512 13.1667 0.00119347C14.8629 0.0255381 16.5268 0.421914 18.0132 1.15576C19.4996 1.8896 20.7634 2.93864 21.6944 4.21139C22.6254 5.48414 23.1953 6.94197 23.3545 8.45776C23.4052 8.93961 22.9645 9.33279 22.425 9.33279C21.8868 9.33279 21.4565 8.93961 21.3941 8.45893C21.2222 7.13273 20.6633 5.87075 19.7738 4.80057C18.8842 3.73039 17.6957 2.88994 16.3282 2.36418C14.9607 1.83841 13.4628 1.64597 11.9859 1.80631C10.509 1.96665 9.10541 2.47409 7.91706 3.27732C6.72872 4.08055 5.79772 5.15111 5.21819 6.38078C4.63866 7.61045 4.43113 8.95563 4.61659 10.2804C4.80204 11.6051 5.37391 12.8624 6.27437 13.9252C7.17484 14.988 8.37199 15.8185 9.7448 16.333L9.7968 16.3528C10.0568 16.4485 10.3237 16.5329 10.5976 16.606C10.848 16.0584 11.321 15.6166 11.9207 15.3703C12.5205 15.1239 13.2021 15.0913 13.8276 15.2791C14.4532 15.4668 14.9758 15.8609 15.2896 16.3816C15.6035 16.9022 15.6852 17.5104 15.5181 18.083C15.374 18.584 15.0484 19.0278 14.5926 19.3446C14.1367 19.6614 13.5765 19.8332 13 19.8331ZM3.9 18.083H5.4197C4.69288 17.5746 4.03105 16.9955 3.4463 16.3563C2.49693 16.4561 1.62145 16.8653 0.986129 17.5063C0.350806 18.1472 -0.000117642 18.9752 2.95836e-08 19.8331V20.6673C2.95836e-08 25.0051 5.473 28 13 28C20.527 28 26 24.8406 26 20.6673V19.8331C26 18.9048 25.5891 18.0145 24.8577 17.3581C24.1263 16.7018 23.1343 16.333 22.1 16.333H17.3615C17.5499 16.9001 17.5987 17.4973 17.5045 18.083H22.1L22.2885 18.0912C22.7708 18.1332 23.2183 18.3349 23.544 18.6569C23.8696 18.9789 24.05 19.3982 24.05 19.8331V20.6673L24.0435 20.8551C23.8615 23.7952 19.4038 26.2499 13 26.2499C6.3557 26.2499 1.95 23.787 1.95 20.6673V19.8331L1.9591 19.6639C2.00594 19.2311 2.23065 18.8294 2.58946 18.5372C2.94827 18.2449 3.41546 18.083 3.9 18.083ZM19.5 9.33279C19.5002 10.3896 19.1805 11.4265 18.5752 12.3329C17.9698 13.2394 17.1014 13.9812 16.0628 14.4791C15.2249 13.795 14.1328 13.416 13 13.4162C13.5975 13.4162 14.1892 13.3106 14.7412 13.1054C15.2932 12.9002 15.7948 12.5994 16.2173 12.2202C16.6398 11.841 16.975 11.3909 17.2036 10.8955C17.4323 10.4 17.55 9.86903 17.55 9.33279C17.55 8.79654 17.4323 8.26554 17.2036 7.77012C16.975 7.27469 16.6398 6.82453 16.2173 6.44535C15.7948 6.06617 15.2932 5.76538 14.7412 5.56017C14.1892 5.35496 13.5975 5.24933 13 5.24933C11.7933 5.24933 10.636 5.67955 9.78266 6.44535C8.92937 7.21114 8.45 8.24979 8.45 9.33279C8.45 10.4158 8.92937 11.4544 9.78266 12.2202C10.636 12.986 11.7933 13.4162 13 13.4162C11.8196 13.4162 10.7458 13.8199 9.9385 14.4803C8.90043 13.9827 8.03236 13.2415 7.4269 12.3359C6.9114 11.5651 6.60136 10.6979 6.52097 9.80185C6.44058 8.90581 6.59202 8.00522 6.96346 7.17037C7.33491 6.33553 7.91632 5.58903 8.6623 4.98913C9.40827 4.38924 10.2986 3.95218 11.2639 3.71208C12.2292 3.47198 13.2432 3.43533 14.2268 3.605C15.2105 3.77467 16.1371 4.14606 16.9344 4.69018C17.7317 5.2343 18.3781 5.93643 18.8232 6.74177C19.2682 7.5471 19.4998 8.43385 19.5 9.33279Z" fill="#4849F0"/>
</svg>
