<svg width="8" height="9" viewBox="0 0 8 9" fill="none" xmlns="http://www.w3.org/2000/svg">
<path d="M3.22771 0.00601325C3.37108 -0.0152936 3.5171 0.020506 3.63436 0.105716C3.75162 0.190927 3.83077 0.318745 3.85479 0.461693C3.8788 0.604641 3.84578 0.751306 3.7628 0.87016C3.67983 0.989014 3.55353 1.07057 3.41106 1.09729C2.76654 1.20659 2.18154 1.54057 1.75975 2.04001C1.33796 2.53946 1.10663 3.17212 1.10677 3.82584C1.10677 4.55968 1.39828 5.26345 1.91718 5.78235C2.43608 6.30125 3.13986 6.59277 3.87369 6.59277V7.69953C1.73431 7.69953 0 5.9656 0 3.82584C0 1.92773 1.37461 0.317384 3.22771 0.00601325Z" fill="#A3A3A3"/>
<path d="M5.67855 0.984311C5.72708 0.930171 5.7858 0.886124 5.85136 0.854689C5.91692 0.823254 5.98803 0.805046 6.06063 0.801106C6.13323 0.797166 6.2059 0.807571 6.27447 0.831727C6.34305 0.855882 6.40619 0.893315 6.4603 0.941885C6.86573 1.30492 7.18995 1.74945 7.41176 2.2464C7.63357 2.74336 7.74797 3.28155 7.74747 3.82576C7.74747 5.96551 6.01316 7.69945 3.87378 7.69945V6.59268C4.43386 6.59269 4.98076 6.42272 5.44218 6.10525C5.9036 5.78778 6.25781 5.33776 6.45799 4.81467C6.65816 4.29158 6.69488 3.72005 6.56328 3.17565C6.43169 2.63124 6.13798 2.13959 5.72098 1.76569C5.61175 1.66769 5.54591 1.53032 5.53796 1.38379C5.53 1.23725 5.58057 1.09356 5.67855 0.984311Z" fill="url(#paint0_linear_14_2067)"/>
<defs>
<linearGradient id="paint0_linear_14_2067" x1="197.558" y1="105.943" x2="197.558" y2="602.062" gradientUnits="userSpaceOnUse">
<stop stop-color="#5C5BD9"/>
<stop offset="0.5" stop-color="#5C5BD9"/>
</linearGradient>
</defs>
</svg>
