<svg width="25" height="22" viewBox="0 0 25 22" fill="none" xmlns="http://www.w3.org/2000/svg">
<path d="M16.8954 16.082C17.1407 16.1936 17.4579 16.1815 17.6767 16.0148L17.6845 16.0216C18.521 15.3836 19.3664 14.7542 20.2204 14.1336C20.4907 13.9414 20.4439 13.6337 20.2298 13.3771L20.0345 13.1486C19.4954 12.5238 18.9829 11.9312 18.9829 10.742V6.30757L18.9845 5.85742C18.997 4.15757 19.0064 2.60419 17.5267 1.41632C16.2564 0.368188 14.1563 0 12.547 0C9.40165 0 5.89071 1.00781 5.15008 4.35376C5.07664 4.70851 5.37352 4.89663 5.64383 4.94904L8.85321 5.24467C9.15009 5.23257 9.36884 4.98129 9.42509 4.72463C9.70009 3.57304 10.8251 3.01672 12.086 3.01672C12.7657 3.01672 13.5376 3.23173 13.9423 3.75579C14.3548 4.27985 14.3485 4.9786 14.3438 5.60479V6.18529C14.0313 6.21486 13.7079 6.24397 13.3735 6.27264C11.6345 6.42583 9.62821 6.6032 8.12352 7.17295C6.05164 7.94158 4.59383 9.51377 4.59383 11.8223C4.59383 14.7786 6.76102 16.254 9.54384 16.254C11.897 16.254 13.1813 15.7783 14.9954 14.1847L15.2564 14.5152C15.6845 15.0594 15.9689 15.4222 16.8923 16.082H16.8954ZM9.42196 11.3292C9.42196 8.90505 11.9485 8.46564 14.3392 8.46564V9.23158C14.3407 10.2743 14.3423 11.1585 13.7204 12.0978C13.1954 12.8973 12.361 13.3892 11.4313 13.3892C10.1626 13.3892 9.42196 12.5574 9.42196 11.3292ZM0.679759 16.3588C4.78758 18.5129 11.1454 21.8467 21.2782 17.6986C21.7157 17.5427 22.0204 17.8034 21.5892 18.2777C21.1532 18.7588 17.6751 21.5 11.8282 21.5C5.98758 21.5 1.51257 18.0681 0.146945 16.6437C-0.228055 16.2742 0.203196 16.1062 0.457884 16.2419L0.679759 16.3588Z" fill="black"/>
<path d="M21.6064 16.0484C22.4923 15.9544 23.9001 16.0121 24.1767 16.3225C24.3876 16.559 24.1704 17.6206 23.8126 18.3825C23.4532 19.139 22.9189 19.6739 22.622 19.8808C22.3251 20.0877 22.1017 20.0071 22.2626 19.6967C22.4267 19.3876 23.3314 17.462 22.9736 17.0589C22.6407 16.6854 21.1345 16.8211 20.4345 16.8842L20.2939 16.8963C20.1459 16.908 20.0246 16.9187 19.9298 16.9286C19.6282 16.9568 19.547 16.9649 19.5017 16.8856C19.3861 16.6047 20.7189 16.1384 21.6064 16.0484Z" fill="black"/>
</svg>
