<svg width="21" height="21" viewBox="0 0 21 21" fill="none" xmlns="http://www.w3.org/2000/svg">
<path d="M10.5 0.5C11.7598 0.5 12.968 1.00044 13.8588 1.89124C14.7496 2.78204 15.25 3.99022 15.25 5.25C15.25 6.50978 14.7496 7.71796 13.8588 8.60876C12.968 9.49955 11.7598 10 10.5 10C9.24022 10 8.03204 9.49955 7.14124 8.60876C6.25044 7.71796 5.75 6.50978 5.75 5.25C5.75 3.99022 6.25044 2.78204 7.14124 1.89124C8.03204 1.00044 9.24022 0.5 10.5 0.5ZM10.5 13.625C13.3399 13.625 15.8851 14.2011 17.7019 15.1095C19.5484 16.0327 20.5 17.216 20.5 18.375V20.5H0.5V18.375C0.5 17.216 1.45162 16.0327 3.29814 15.1095C5.11488 14.2011 7.6601 13.625 10.5 13.625Z" stroke="#4849F0"/>
</svg>
