<svg width="123" height="31" viewBox="0 0 123 31" fill="none" xmlns="http://www.w3.org/2000/svg">
<path d="M81.6722 0V22.581C84.6173 22.7104 87.5545 22.8674 90.4838 23.052V27.8397C85.8381 27.5467 81.1877 27.3243 76.5344 27.1728V0H81.6722ZM122.5 0.00270424L115.81 14.6718L122.498 30.9959L122.491 30.9989C120.541 30.7365 118.589 30.4868 116.635 30.25L112.879 21.0881L109.087 29.3995C107.288 29.2116 105.488 29.0343 103.687 28.8677L110.209 14.5736L104.236 0.00292959H109.794L113.138 8.1571L116.857 0.00270424H122.5ZM58.9011 26.9355V0.00247888H73.2432V4.83314H64.0389V11.0934H71.0031V15.8811H64.0389V26.9346L58.9011 26.9355ZM39.7163 4.83337V0.00225353H55.6073V4.83314H50.2305V27.0665C48.5156 27.1093 46.8026 27.1593 45.0931 27.2204V4.83337H39.7163ZM22.1521 28.6122V0.00315494H36.4228V4.8336H27.2892V11.3769C29.3876 11.3515 32.3711 11.3229 34.2273 11.3269V16.115C31.9038 16.0879 29.281 16.1452 27.2892 16.1639V23.4121C30.3315 23.1854 33.3762 22.9886 36.4228 22.8217V27.6098C31.6604 27.8696 26.9029 28.204 22.1521 28.6126M12.0736 17.5446L12.0733 0.00225353H17.2111V29.0638C15.333 29.2465 13.4583 29.4406 11.587 29.6461L5.63734 13.4815V30.3384C3.92172 30.5496 2.20927 30.7701 0.5 31V0.00270424H5.38262L12.0736 17.5446ZM94.7224 28.1283V0.00270424H99.8604V28.5297C98.1498 28.3855 96.4377 28.2523 94.7224 28.1283Z" fill="#DB202C"/>
</svg>
