<svg width="34" height="9" viewBox="0 0 34 9" fill="none" xmlns="http://www.w3.org/2000/svg">
<path d="M22.6218 0V6.55579C23.4425 6.59334 24.2611 6.63892 25.0775 6.69252V8.08248C23.7827 7.99741 22.4867 7.93288 21.1899 7.88889V0H22.6218ZM34 0.000785101L32.1355 4.25956L33.9995 8.99882L33.9975 8.99967C33.454 8.92349 32.91 8.85102 32.3655 8.78226L31.3187 6.12234L30.262 8.53535C29.7607 8.48078 29.2591 8.42932 28.7571 8.38095L30.5747 4.23104L28.9101 0.000850526H30.459L31.391 2.36819L32.4274 0.000785101H34ZM16.2757 7.81999V0.000719676H20.2727V1.40317H17.7076V3.22068H19.6484V4.61063H17.7076V7.81973L16.2757 7.81999ZM10.9291 1.40324V0.00065425H15.3578V1.40317H13.8593V7.85801C13.3814 7.87044 12.904 7.88496 12.4276 7.90269V1.40324H10.9291ZM6.0342 8.30676V0.000915951H10.0113V1.4033H7.46586V3.30298C8.05063 3.29559 8.8821 3.28728 9.39941 3.28846V4.67854C8.75188 4.67069 8.02095 4.68731 7.46586 4.69274V6.79707C8.3137 6.73125 9.16222 6.67411 10.0113 6.62566V8.01575C8.68404 8.09119 7.35817 8.18825 6.0342 8.30689M3.22542 5.0936L3.22535 0.00065425H4.6572V8.43787C4.13379 8.49091 3.61133 8.54726 3.08982 8.60693L1.43172 3.91399V8.80791C0.953594 8.86924 0.476354 8.93327 0 9V0.000785101H1.36073L3.22542 5.0936ZM26.2587 8.16629V0.000785101H27.6906V8.28281C27.2139 8.24094 26.7367 8.20227 26.2587 8.16629Z" fill="#DB202C"/>
</svg>
