<svg width="21" height="20" viewBox="0 0 21 20" fill="none" xmlns="http://www.w3.org/2000/svg">
<path d="M19.3907 2.30455L20.1152 1.63631C20.3073 1.45655 20.4152 1.21275 20.4152 0.95853C20.4152 0.704312 20.3073 0.460506 20.1152 0.280747C19.923 0.100988 19.6624 0 19.3907 0C19.119 0 18.8584 0.100988 18.6662 0.280747L17.2377 1.62677L14.35 4.32835L7.91148 10.3425C6.85646 9.69127 5.58061 9.42964 4.33116 9.60827C3.08171 9.78691 1.94762 10.3931 1.14864 11.3094C0.34965 12.2257 -0.0573422 13.3868 0.00652131 14.5678C0.0703849 15.7488 0.600557 16.8656 1.49431 17.7017C2.38806 18.5379 3.58175 19.0339 4.84409 19.0936C6.10643 19.1534 7.34754 18.7726 8.32693 18.0251C9.30632 17.2776 9.95426 16.2166 10.1452 15.0477C10.3361 13.8787 10.0565 12.6851 9.36042 11.698L15.0643 6.35215L17.2275 8.3855C17.3226 8.47388 17.4355 8.54387 17.5595 8.59146C17.6835 8.63905 17.8164 8.66332 17.9505 8.66287C18.0845 8.66243 18.2172 8.63729 18.3409 8.58888C18.4646 8.54047 18.5769 8.46974 18.6713 8.38073C18.7658 8.29172 18.8406 8.18618 18.8915 8.07012C18.9423 7.95407 18.9683 7.82978 18.9678 7.70435C18.9673 7.57891 18.9405 7.4548 18.8887 7.33908C18.837 7.22337 18.7614 7.11832 18.6662 7.02994L16.503 5.00613L17.952 3.66012L18.6662 4.32835C18.7607 4.41736 18.873 4.48809 18.9967 4.5365C19.1203 4.58491 19.253 4.61005 19.3871 4.6105C19.5212 4.61094 19.654 4.58667 19.7781 4.53908C19.9021 4.49149 20.0149 4.42151 20.1101 4.33313C20.2052 4.24474 20.2808 4.1397 20.3325 4.02398C20.3843 3.90827 20.4112 3.78415 20.4116 3.65872C20.4121 3.53328 20.3862 3.40899 20.3353 3.29294C20.2844 3.17688 20.2096 3.07134 20.1152 2.98233L19.3907 2.30455ZM5.10546 17.1871C4.50002 17.1871 3.90819 17.0192 3.40479 16.7045C2.90139 16.3898 2.50904 15.9425 2.27735 15.4192C2.04566 14.8959 1.98504 14.3201 2.10315 13.7645C2.22127 13.209 2.51281 12.6987 2.94092 12.2982C3.36902 11.8977 3.91446 11.6249 4.50826 11.5144C5.10206 11.4039 5.71755 11.4606 6.2769 11.6774C6.83624 11.8942 7.31433 12.2612 7.65069 12.7322C7.98705 13.2031 8.16658 13.7568 8.16658 14.3233C8.16658 15.0828 7.84407 15.8112 7.27 16.3483C6.69593 16.8854 5.91732 17.1871 5.10546 17.1871Z" fill="#A4A4A4"/>
</svg>
