<svg width="20" height="15" viewBox="0 0 20 15" fill="none" xmlns="http://www.w3.org/2000/svg">
<path d="M4.73227 0.296954C4.64989 0.209563 4.54989 0.138428 4.43808 0.0876727C4.32627 0.0369172 4.20486 0.00755059 4.0809 0.00127481C3.95694 -0.00500097 3.83289 0.0119389 3.71593 0.0511127C3.59898 0.0902864 3.49145 0.150915 3.39958 0.229484C3.30771 0.308053 3.23332 0.403001 3.18073 0.508823C3.12814 0.614646 3.09839 0.729238 3.09321 0.84596C3.08803 0.962681 3.10752 1.07921 3.15054 1.18879C3.19357 1.29837 3.25928 1.39883 3.34387 1.48434L4.59468 2.78281C1.90152 4.47045 0.732793 6.89229 0.676506 7.00632C0.623545 7.11932 0.596191 7.24147 0.596191 7.36497C0.596191 7.48847 0.623545 7.61061 0.676506 7.72361C0.705431 7.78394 1.39025 9.21409 2.90374 10.6376C4.92693 12.5393 7.47781 13.5443 10.2921 13.5443C11.6599 13.5514 13.0155 13.3013 14.2791 12.8086L15.8497 14.4345C16.0179 14.6045 16.2505 14.7053 16.4971 14.715C16.7438 14.7247 16.9845 14.6425 17.1672 14.4863C17.3499 14.33 17.4598 14.1123 17.4731 13.8804C17.4863 13.6484 17.4019 13.4208 17.2381 13.2471L4.73227 0.296954ZM10.2921 11.7787C7.97891 11.7787 5.95572 10.9893 4.27963 9.43332C3.62034 8.819 3.05304 8.12303 2.59338 7.3646C3.00537 6.67968 4.0623 5.16493 5.87676 4.10629L12.9196 11.3976C12.0703 11.6528 11.1837 11.7814 10.2921 11.7787ZM19.9078 7.72361C19.8796 7.7832 19.2042 9.19496 17.7188 10.6045C17.6338 10.6934 17.5304 10.765 17.4151 10.8151C17.2997 10.8653 17.1747 10.8928 17.0477 10.8961C16.9206 10.8994 16.7942 10.8784 16.6761 10.8343C16.558 10.7902 16.4506 10.724 16.3605 10.6397C16.2704 10.5554 16.1994 10.4547 16.1518 10.3438C16.1043 10.2329 16.0812 10.1141 16.084 9.99454C16.0867 9.87498 16.1152 9.7572 16.1678 9.64833C16.2204 9.53947 16.2959 9.44179 16.3899 9.36123C17.0138 8.76425 17.552 8.09301 17.9909 7.3646C17.5315 6.606 16.9642 5.91 16.3046 5.29588C14.6278 3.73992 12.6054 2.95054 10.2921 2.95054C10.0302 2.95054 9.76836 2.96084 9.51038 2.98144C9.38606 2.99397 9.26033 2.98299 9.14058 2.94914C9.02084 2.9153 8.90949 2.85926 8.81308 2.78434C8.71668 2.70942 8.63716 2.61711 8.5792 2.51285C8.52125 2.4086 8.48603 2.29449 8.4756 2.17724C8.46518 2.05998 8.47977 1.94195 8.51852 1.83009C8.55726 1.71822 8.61938 1.61476 8.70122 1.52581C8.78306 1.43685 8.88297 1.36419 8.99507 1.31209C9.10718 1.26 9.22922 1.22951 9.35403 1.22244C9.66126 1.19742 9.97943 1.18492 10.2921 1.18492C13.1065 1.18492 15.6573 2.19059 17.679 4.09231C19.1917 5.51584 19.8765 6.94673 19.9054 7.00632C19.9588 7.11917 19.9865 7.24123 19.9869 7.36473C19.9873 7.48823 19.9604 7.61046 19.9078 7.72361Z" fill="#A4A4A4"/>
</svg>
