<svg width="15" height="11" viewBox="0 0 15 11" fill="none" xmlns="http://www.w3.org/2000/svg">
<path d="M15 3.34876C15.0002 3.08662 14.9361 2.82809 14.8127 2.594C14.6894 2.35991 14.5103 2.15681 14.2898 2.00105C14.0693 1.8453 13.8137 1.74125 13.5435 1.69729C13.2733 1.65333 12.9961 1.67068 12.7342 1.74796C12.4723 1.82523 12.233 1.96026 12.0357 2.14218C11.8383 2.32409 11.6884 2.54779 11.598 2.79526C11.5076 3.04273 11.4793 3.30705 11.5152 3.56693C11.5512 3.8268 11.6505 4.07496 11.8051 4.29141L10.1308 6.264L8.62519 2.95424C8.89978 2.7332 9.09667 2.43676 9.18918 2.10509C9.28168 1.77342 9.26532 1.42257 9.14232 1.1001C9.01932 0.777619 8.79562 0.499113 8.50155 0.302329C8.20748 0.105545 7.85725 0 7.49835 0C7.13945 0 6.78923 0.105545 6.49516 0.302329C6.20109 0.499113 5.97739 0.777619 5.85439 1.1001C5.73139 1.42257 5.71503 1.77342 5.80753 2.10509C5.90003 2.43676 6.09692 2.7332 6.37151 2.95424L4.86968 6.26221L3.19536 4.28962C3.41044 3.9882 3.51663 3.62781 3.49775 3.26333C3.47887 2.89885 3.33597 2.55026 3.09079 2.27065C2.84562 1.99103 2.51161 1.79572 2.13964 1.71446C1.76768 1.63319 1.37813 1.67043 1.03034 1.82049C0.682542 1.97056 0.395556 2.22523 0.213088 2.54572C0.0306189 2.86621 -0.0373334 3.23495 0.0195799 3.5958C0.0764932 3.95664 0.255153 4.2898 0.52835 4.54455C0.801547 4.7993 1.15431 4.96166 1.53291 5.00693L2.43788 10.2008C2.47679 10.4241 2.59725 10.627 2.77783 10.7733C2.95841 10.9196 3.18742 11 3.4241 11H11.5764C11.813 11 12.042 10.9196 12.2226 10.7733C12.4032 10.627 12.5237 10.4241 12.5626 10.2008L13.4669 5.00932C13.8901 4.95876 14.2795 4.76212 14.5618 4.45633C14.8441 4.15055 14.9999 3.75669 15 3.34876ZM7.50023 0.957744C7.64856 0.957744 7.79356 0.999813 7.91689 1.07863C8.04023 1.15745 8.13635 1.26948 8.19312 1.40055C8.24988 1.53162 8.26473 1.67584 8.2358 1.81499C8.20686 1.95413 8.13543 2.08194 8.03054 2.18226C7.92566 2.28258 7.79202 2.35089 7.64654 2.37857C7.50106 2.40625 7.35027 2.39204 7.21322 2.33775C7.07618 2.28346 6.95905 2.19152 6.87665 2.07356C6.79424 1.9556 6.75025 1.81692 6.75025 1.67505C6.75025 1.48481 6.82927 1.30236 6.96991 1.16784C7.11056 1.03332 7.30132 0.957744 7.50023 0.957744ZM1.00043 3.34876C1.00043 3.20689 1.04441 3.0682 1.12682 2.95024C1.20923 2.83228 1.32636 2.74035 1.4634 2.68605C1.60044 2.63176 1.75124 2.61756 1.89672 2.64524C2.0422 2.67291 2.17583 2.74123 2.28072 2.84155C2.3856 2.94186 2.45703 3.06967 2.48597 3.20882C2.51491 3.34796 2.50006 3.49219 2.44329 3.62326C2.38653 3.75433 2.2904 3.86636 2.16707 3.94517C2.04374 4.02399 1.89874 4.06606 1.7504 4.06606C1.5515 4.06606 1.36074 3.99049 1.22009 3.85597C1.07944 3.72145 1.00043 3.539 1.00043 3.34876ZM11.5764 10.0436H3.4241L2.55413 5.05355L4.61219 7.47326C4.6588 7.52894 4.71785 7.57394 4.78501 7.60497C4.85216 7.636 4.92572 7.65227 5.00031 7.65258C5.02288 7.65265 5.04543 7.65125 5.0678 7.6484C5.15298 7.63732 5.23374 7.60543 5.30227 7.5558C5.3708 7.50617 5.4248 7.44047 5.45904 7.36506L7.29024 3.3362C7.42968 3.35293 7.57077 3.35293 7.71022 3.3362L9.54142 7.36506C9.57566 7.44047 9.62966 7.50617 9.69819 7.5558C9.76672 7.60543 9.84748 7.63732 9.93265 7.6484C9.95503 7.65125 9.97758 7.65265 10.0002 7.65258C10.0747 7.65227 10.1483 7.636 10.2155 7.60497C10.2826 7.57394 10.3417 7.52894 10.3883 7.47326L12.4463 5.05116L11.5764 10.0436ZM13.2501 4.06606C13.1017 4.06606 12.9567 4.02399 12.8334 3.94517C12.7101 3.86636 12.6139 3.75433 12.5572 3.62326C12.5004 3.49219 12.4855 3.34796 12.5145 3.20882C12.5434 3.06967 12.6149 2.94186 12.7197 2.84155C12.8246 2.74123 12.9583 2.67291 13.1037 2.64524C13.2492 2.61756 13.4 2.63176 13.5371 2.68605C13.6741 2.74035 13.7912 2.83228 13.8736 2.95024C13.956 3.0682 14 3.20689 14 3.34876C14 3.539 13.921 3.72145 13.7804 3.85597C13.6397 3.99049 13.449 4.06606 13.2501 4.06606Z" fill="white"/>
</svg>
