<svg width="35" height="29" viewBox="0 0 35 29" fill="none" xmlns="http://www.w3.org/2000/svg">
<path d="M18.3245 28H15.0245C8.82216 28 5.72181 28 3.65106 26.3294C3.32198 26.0628 3.01614 25.7675 2.73696 25.4468C0.999512 23.4556 0.999512 20.4687 0.999512 14.5C0.999512 8.53131 0.999512 5.54613 2.73696 3.55319C3.01526 3.23369 3.31996 2.94006 3.65106 2.67231C5.72181 1 8.82216 1 15.0245 1H19.9745C26.1769 1 29.2772 1 31.3463 2.67062C31.6785 2.94062 31.9838 3.23481 32.2621 3.55319C33.7339 5.24069 33.9599 7.642 33.9945 11.9688M28.2245 28V16.1875M22.4495 22.0938H33.9995M0.999512 9.4375H33.9995" stroke="white" stroke-width="1.5" stroke-linecap="round" stroke-linejoin="round"/>
</svg>
