<svg width="110" height="110" viewBox="0 0 110 110" fill="none" xmlns="http://www.w3.org/2000/svg">
<g filter="url(#filter0_di_14_501)">
<path d="M87.8571 57.5714V51C87.8571 49.2571 87.1648 47.5857 85.9324 46.3533C84.7 45.1209 83.0286 44.4286 81.2857 44.4286H15.5714C13.8286 44.4286 12.1571 45.1209 10.9247 46.3533C9.69235 47.5857 9 49.2571 9 51V90.4286C9 92.1714 9.69235 93.8429 10.9247 95.0753C12.1571 96.3077 13.8286 97 15.5714 97H81.2857C83.0286 97 84.7 96.3077 85.9324 95.0753C87.1648 93.8429 87.8571 92.1714 87.8571 90.4286V83.8571M87.8571 57.5714H61.5714C58.0857 57.5714 54.7428 58.9561 52.278 61.4209C49.8133 63.8856 48.4286 67.2286 48.4286 70.7143C48.4286 74.2 49.8133 77.5429 52.278 80.0077C54.7428 82.4724 58.0857 83.8571 61.5714 83.8571H87.8571M87.8571 57.5714C91.3428 57.5714 94.6858 58.9561 97.1505 61.4209C99.6153 63.8856 101 67.2286 101 70.7143C101 74.2 99.6153 77.5429 97.1505 80.0077C94.6858 82.4724 91.3428 83.8571 87.8571 83.8571M28.7143 44.4286V24.7143C28.7143 19.4857 30.7913 14.4713 34.4885 10.7742C38.1856 7.07703 43.2 5 48.4286 5C53.6571 5 58.6715 7.07703 62.3687 10.7742C66.0658 14.4713 68.1429 19.4857 68.1429 24.7143V44.4286M84.5714 70.7143H91.1429M71.4286 70.7143H78M58.2857 70.7143H64.8571" stroke="white" stroke-width="9" shape-rendering="crispEdges"/>
</g>
<defs>
<filter id="filter0_di_14_501" x="0.5" y="0.5" width="109" height="109" filterUnits="userSpaceOnUse" color-interpolation-filters="sRGB">
<feFlood flood-opacity="0" result="BackgroundImageFix"/>
<feColorMatrix in="SourceAlpha" type="matrix" values="0 0 0 0 0 0 0 0 0 0 0 0 0 0 0 0 0 0 127 0" result="hardAlpha"/>
<feOffset dy="4"/>
<feGaussianBlur stdDeviation="2"/>
<feComposite in2="hardAlpha" operator="out"/>
<feColorMatrix type="matrix" values="0 0 0 0 1 0 0 0 0 1 0 0 0 0 1 0 0 0 0.25 0"/>
<feBlend mode="normal" in2="BackgroundImageFix" result="effect1_dropShadow_14_501"/>
<feBlend mode="normal" in="SourceGraphic" in2="effect1_dropShadow_14_501" result="shape"/>
<feColorMatrix in="SourceAlpha" type="matrix" values="0 0 0 0 0 0 0 0 0 0 0 0 0 0 0 0 0 0 127 0" result="hardAlpha"/>
<feOffset dy="4"/>
<feGaussianBlur stdDeviation="2"/>
<feComposite in2="hardAlpha" operator="arithmetic" k2="-1" k3="1"/>
<feColorMatrix type="matrix" values="0 0 0 0 0 0 0 0 0 0 0 0 0 0 0 0 0 0 0.25 0"/>
<feBlend mode="normal" in2="shape" result="effect2_innerShadow_14_501"/>
</filter>
</defs>
</svg>
