<svg width="19" height="19" viewBox="0 0 19 19" fill="none" xmlns="http://www.w3.org/2000/svg">
<path d="M13.5792 11.9497H12.721L12.4168 11.6564C13.5183 10.3789 14.1236 8.74794 14.1223 7.06118C14.1223 5.66461 13.7082 4.29941 12.9323 3.1382C12.1564 1.977 11.0536 1.07195 9.76337 0.537503C8.47311 0.00305948 7.05334 -0.136775 5.68361 0.135682C4.31387 0.408139 3.05569 1.08065 2.06817 2.06817C1.08065 3.0557 0.408138 4.31388 0.135682 5.68361C-0.136775 7.05335 0.0030595 8.47311 0.537503 9.76337C1.07195 11.0536 1.97699 12.1564 3.1382 12.9323C4.2994 13.7082 5.66461 14.1224 7.06117 14.1224C8.81017 14.1224 10.4179 13.4814 11.6564 12.4168L11.9497 12.721V13.5792L17.3813 19L19 17.3814L13.5792 11.9497ZM7.06117 11.9497C4.3562 11.9497 2.17267 9.76615 2.17267 7.06118C2.17267 4.35621 4.3562 2.17267 7.06117 2.17267C9.76615 2.17267 11.9497 4.35621 11.9497 7.06118C11.9497 9.76615 9.76615 11.9497 7.06117 11.9497Z" fill="white"/>
</svg>
