<svg width="67" height="105" viewBox="0 0 67 105" fill="none" xmlns="http://www.w3.org/2000/svg">
<g filter="url(#filter0_i_14_2561)">
<path fill-rule="evenodd" clip-rule="evenodd" d="M7.44444 12.1154C7.44444 11.0443 7.83661 10.0171 8.53466 9.25976C9.23271 8.5024 10.1795 8.07692 11.1667 8.07692H55.8333C56.8205 8.07692 57.7673 8.5024 58.4653 9.25976C59.1634 10.0171 59.5556 11.0443 59.5556 12.1154V92.8846C59.5556 93.9557 59.1634 94.9829 58.4653 95.7402C57.7673 96.4976 56.8205 96.9231 55.8333 96.9231H11.1667C10.1795 96.9231 9.23271 96.4976 8.53466 95.7402C7.83661 94.9829 7.44444 93.9557 7.44444 92.8846V12.1154ZM11.1667 0C8.20508 0 5.3648 1.27644 3.27064 3.54851C1.17648 5.82059 0 8.90218 0 12.1154V92.8846C0 96.0978 1.17648 99.1794 3.27064 101.451C5.3648 103.724 8.20508 105 11.1667 105H55.8333C58.7949 105 61.6352 103.724 63.7294 101.451C65.8235 99.1794 67 96.0978 67 92.8846V12.1154C67 8.90218 65.8235 5.82059 63.7294 3.54851C61.6352 1.27644 58.7949 0 55.8333 0H11.1667ZM22.3333 86.0192C21.6423 86.0192 20.9796 86.3171 20.4909 86.8472C20.0023 87.3774 19.7278 88.0964 19.7278 88.8462C19.7278 89.5959 20.0023 90.3149 20.4909 90.8451C20.9796 91.3752 21.6423 91.6731 22.3333 91.6731H44.6667C45.3577 91.6731 46.0204 91.3752 46.5091 90.8451C46.9977 90.3149 47.2722 89.5959 47.2722 88.8462C47.2722 88.0964 46.9977 87.3774 46.5091 86.8472C46.0204 86.3171 45.3577 86.0192 44.6667 86.0192H22.3333Z" fill="white"/>
</g>
<defs>
<filter id="filter0_i_14_2561" x="0" y="0" width="67" height="109" filterUnits="userSpaceOnUse" color-interpolation-filters="sRGB">
<feFlood flood-opacity="0" result="BackgroundImageFix"/>
<feBlend mode="normal" in="SourceGraphic" in2="BackgroundImageFix" result="shape"/>
<feColorMatrix in="SourceAlpha" type="matrix" values="0 0 0 0 0 0 0 0 0 0 0 0 0 0 0 0 0 0 127 0" result="hardAlpha"/>
<feOffset dy="4"/>
<feGaussianBlur stdDeviation="2"/>
<feComposite in2="hardAlpha" operator="arithmetic" k2="-1" k3="1"/>
<feColorMatrix type="matrix" values="0 0 0 0 0 0 0 0 0 0 0 0 0 0 0 0 0 0 0.25 0"/>
<feBlend mode="normal" in2="shape" result="effect1_innerShadow_14_2561"/>
</filter>
</defs>
</svg>
