<svg width="97" height="89" viewBox="0 0 97 89" fill="none" xmlns="http://www.w3.org/2000/svg">
<g filter="url(#filter0_di_14_1292)">
<path d="M50.619 63.9474C50.619 62.4979 50.7886 61.0911 51.0005 59.6842H12.4762V17.0526L46.381 38.3684L80.2857 17.0526V38.7521C83.3371 39.2637 86.1767 40.3295 88.7619 41.8216V8.52632C88.7619 3.83684 84.9476 0 80.2857 0H12.4762C7.81429 0 4 3.83684 4 8.52632V59.6842C4 64.3737 7.81429 68.2105 12.4762 68.2105H51.0005C50.7886 66.8037 50.619 65.3968 50.619 63.9474ZM80.2857 8.52632L46.381 29.8421L12.4762 8.52632H80.2857ZM80.2857 46.8947V59.6842H93V68.2105H80.2857V81H71.8095V68.2105H59.0952V59.6842H71.8095V46.8947H80.2857Z" fill="white"/>
</g>
<defs>
<filter id="filter0_di_14_1292" x="0" y="0" width="97" height="89" filterUnits="userSpaceOnUse" color-interpolation-filters="sRGB">
<feFlood flood-opacity="0" result="BackgroundImageFix"/>
<feColorMatrix in="SourceAlpha" type="matrix" values="0 0 0 0 0 0 0 0 0 0 0 0 0 0 0 0 0 0 127 0" result="hardAlpha"/>
<feOffset dy="4"/>
<feGaussianBlur stdDeviation="2"/>
<feComposite in2="hardAlpha" operator="out"/>
<feColorMatrix type="matrix" values="0 0 0 0 0 0 0 0 0 0 0 0 0 0 0 0 0 0 0.25 0"/>
<feBlend mode="normal" in2="BackgroundImageFix" result="effect1_dropShadow_14_1292"/>
<feBlend mode="normal" in="SourceGraphic" in2="effect1_dropShadow_14_1292" result="shape"/>
<feColorMatrix in="SourceAlpha" type="matrix" values="0 0 0 0 0 0 0 0 0 0 0 0 0 0 0 0 0 0 127 0" result="hardAlpha"/>
<feOffset dy="4"/>
<feGaussianBlur stdDeviation="2"/>
<feComposite in2="hardAlpha" operator="arithmetic" k2="-1" k3="1"/>
<feColorMatrix type="matrix" values="0 0 0 0 0 0 0 0 0 0 0 0 0 0 0 0 0 0 0.25 0"/>
<feBlend mode="normal" in2="shape" result="effect2_innerShadow_14_1292"/>
</filter>
</defs>
</svg>
