<svg width="107" height="115" viewBox="0 0 107 115" fill="none" xmlns="http://www.w3.org/2000/svg">
<g filter="url(#filter0_i_130_3)">
<path fill-rule="evenodd" clip-rule="evenodd" d="M7.44444 22.1154C7.44444 21.0443 7.83661 20.0171 8.53466 19.2598C9.23271 18.5024 10.1795 18.0769 11.1667 18.0769H55.8333C56.8205 18.0769 57.7673 18.5024 58.4653 19.2598C59.1634 20.0171 59.5556 21.0443 59.5556 22.1154V102.885C59.5556 103.956 59.1634 104.983 58.4653 105.74C57.7673 106.498 56.8205 106.923 55.8333 106.923H11.1667C10.1795 106.923 9.23271 106.498 8.53466 105.74C7.83661 104.983 7.44444 103.956 7.44444 102.885V22.1154ZM11.1667 10C8.20508 10 5.3648 11.2764 3.27064 13.5485C1.17648 15.8206 0 18.9022 0 22.1154V102.885C0 106.098 1.17648 109.179 3.27064 111.451C5.3648 113.724 8.20508 115 11.1667 115H55.8333C58.7949 115 61.6352 113.724 63.7294 111.451C65.8235 109.179 67 106.098 67 102.885V22.1154C67 18.9022 65.8235 15.8206 63.7294 13.5485C61.6352 11.2764 58.7949 10 55.8333 10H11.1667ZM22.3333 96.0192C21.6423 96.0192 20.9796 96.3171 20.4909 96.8472C20.0023 97.3774 19.7278 98.0964 19.7278 98.8462C19.7278 99.5959 20.0023 100.315 20.4909 100.845C20.9796 101.375 21.6423 101.673 22.3333 101.673H44.6667C45.3577 101.673 46.0204 101.375 46.5091 100.845C46.9977 100.315 47.2722 99.5959 47.2722 98.8462C47.2722 98.0964 46.9977 97.3774 46.5091 96.8472C46.0204 96.3171 45.3577 96.0192 44.6667 96.0192H22.3333Z" fill="white"/>
</g>
<g filter="url(#filter1_i_130_3)">
<path d="M80 26C77.5127 26 75.3909 25.1496 73.6345 23.4487C71.8782 21.7371 71 19.6517 71 17.1925C71 15.08 71.6382 13.195 72.9145 11.5375C74.2018 9.88 75.8818 8.82375 77.9545 8.36875C78.6418 5.87708 80.0055 3.86208 82.0454 2.32375C84.0964 0.774583 86.4145 0 89 0C92.1964 0 94.9018 1.105 97.1163 3.315C99.3418 5.51417 100.455 8.20083 100.455 11.375C102.342 11.5917 103.902 12.4042 105.135 13.8125C106.378 15.1992 107 16.8242 107 18.6875C107 20.7242 106.285 22.4521 104.856 23.8713C103.427 25.2904 101.687 26 99.6363 26M80 22.75H99.6363C100.782 22.75 101.747 22.3546 102.533 21.5638C103.329 20.7838 103.727 19.825 103.727 18.6875C103.727 17.55 103.329 16.5912 102.533 15.8112C101.747 15.0204 100.782 14.625 99.6363 14.625H97.1818V11.375C97.1818 9.1325 96.3854 7.215 94.7927 5.6225C93.2 4.04083 91.2691 3.25 89 3.25C86.7418 3.25 84.8109 4.04083 83.2073 5.6225C81.6145 7.215 80.8182 9.1325 80.8182 11.375H80C78.4182 11.375 77.0709 11.9329 75.9582 13.0487C74.8345 14.1537 74.2727 15.4917 74.2727 17.0625C74.2727 18.6333 74.8345 19.9875 75.9582 21.125C77.0709 22.2083 78.4182 22.75 80 22.75Z" fill="#FFFEFE"/>
</g>
<g filter="url(#filter2_i_130_3)">
<path d="M79 15C78.4696 15 77.9609 15.2107 77.5858 15.5858C77.2107 15.9609 77 16.4696 77 17C77 17.5304 77.2107 18.0391 77.5858 18.4142C77.9609 18.7893 78.4696 19 79 19C80.11 19 81 18.11 81 17C81 16.4696 80.7893 15.9609 80.4142 15.5858C80.0391 15.2107 79.5304 15 79 15Z" fill="white"/>
</g>
<g filter="url(#filter3_i_130_3)">
<path d="M85 15C84.4696 15 83.9609 15.2107 83.5858 15.5858C83.2107 15.9609 83 16.4696 83 17C83 17.5304 83.2107 18.0391 83.5858 18.4142C83.9609 18.7893 84.4696 19 85 19C86.11 19 87 18.11 87 17C87 16.4696 86.7893 15.9609 86.4142 15.5858C86.0391 15.2107 85.5304 15 85 15Z" fill="white"/>
</g>
<g filter="url(#filter4_i_130_3)">
<path d="M91.0005 15C90.4701 15 89.9613 15.2107 89.5863 15.5858C89.2112 15.9609 89.0005 16.4696 89.0005 17C89.0005 17.5304 89.2112 18.0391 89.5863 18.4142C89.9613 18.7893 90.4701 19 91.0005 19C92.1105 19 93.0005 18.11 93.0005 17C93.0005 16.4696 92.7898 15.9609 92.4147 15.5858C92.0396 15.2107 91.5309 15 91.0005 15Z" fill="white"/>
</g>
<g filter="url(#filter5_i_130_3)">
<path d="M97 15C96.4696 15 95.9609 15.2107 95.5858 15.5858C95.2107 15.9609 95 16.4696 95 17C95 17.5304 95.2107 18.0391 95.5858 18.4142C95.9609 18.7893 96.4696 19 97 19C98.11 19 99 18.11 99 17C99 16.4696 98.7893 15.9609 98.4142 15.5858C98.0391 15.2107 97.5304 15 97 15Z" fill="white"/>
</g>
<defs>
<filter id="filter0_i_130_3" x="0" y="10" width="67" height="109" filterUnits="userSpaceOnUse" color-interpolation-filters="sRGB">
<feFlood flood-opacity="0" result="BackgroundImageFix"/>
<feBlend mode="normal" in="SourceGraphic" in2="BackgroundImageFix" result="shape"/>
<feColorMatrix in="SourceAlpha" type="matrix" values="0 0 0 0 0 0 0 0 0 0 0 0 0 0 0 0 0 0 127 0" result="hardAlpha"/>
<feOffset dy="4"/>
<feGaussianBlur stdDeviation="2"/>
<feComposite in2="hardAlpha" operator="arithmetic" k2="-1" k3="1"/>
<feColorMatrix type="matrix" values="0 0 0 0 0 0 0 0 0 0 0 0 0 0 0 0 0 0 0.25 0"/>
<feBlend mode="normal" in2="shape" result="effect1_innerShadow_130_3"/>
</filter>
<filter id="filter1_i_130_3" x="71" y="0" width="36" height="30" filterUnits="userSpaceOnUse" color-interpolation-filters="sRGB">
<feFlood flood-opacity="0" result="BackgroundImageFix"/>
<feBlend mode="normal" in="SourceGraphic" in2="BackgroundImageFix" result="shape"/>
<feColorMatrix in="SourceAlpha" type="matrix" values="0 0 0 0 0 0 0 0 0 0 0 0 0 0 0 0 0 0 127 0" result="hardAlpha"/>
<feOffset dy="4"/>
<feGaussianBlur stdDeviation="2"/>
<feComposite in2="hardAlpha" operator="arithmetic" k2="-1" k3="1"/>
<feColorMatrix type="matrix" values="0 0 0 0 0 0 0 0 0 0 0 0 0 0 0 0 0 0 0.25 0"/>
<feBlend mode="normal" in2="shape" result="effect1_innerShadow_130_3"/>
</filter>
<filter id="filter2_i_130_3" x="77" y="15" width="4" height="8" filterUnits="userSpaceOnUse" color-interpolation-filters="sRGB">
<feFlood flood-opacity="0" result="BackgroundImageFix"/>
<feBlend mode="normal" in="SourceGraphic" in2="BackgroundImageFix" result="shape"/>
<feColorMatrix in="SourceAlpha" type="matrix" values="0 0 0 0 0 0 0 0 0 0 0 0 0 0 0 0 0 0 127 0" result="hardAlpha"/>
<feOffset dy="4"/>
<feGaussianBlur stdDeviation="2"/>
<feComposite in2="hardAlpha" operator="arithmetic" k2="-1" k3="1"/>
<feColorMatrix type="matrix" values="0 0 0 0 0 0 0 0 0 0 0 0 0 0 0 0 0 0 0.25 0"/>
<feBlend mode="normal" in2="shape" result="effect1_innerShadow_130_3"/>
</filter>
<filter id="filter3_i_130_3" x="83" y="15" width="4" height="8" filterUnits="userSpaceOnUse" color-interpolation-filters="sRGB">
<feFlood flood-opacity="0" result="BackgroundImageFix"/>
<feBlend mode="normal" in="SourceGraphic" in2="BackgroundImageFix" result="shape"/>
<feColorMatrix in="SourceAlpha" type="matrix" values="0 0 0 0 0 0 0 0 0 0 0 0 0 0 0 0 0 0 127 0" result="hardAlpha"/>
<feOffset dy="4"/>
<feGaussianBlur stdDeviation="2"/>
<feComposite in2="hardAlpha" operator="arithmetic" k2="-1" k3="1"/>
<feColorMatrix type="matrix" values="0 0 0 0 0 0 0 0 0 0 0 0 0 0 0 0 0 0 0.25 0"/>
<feBlend mode="normal" in2="shape" result="effect1_innerShadow_130_3"/>
</filter>
<filter id="filter4_i_130_3" x="89.0005" y="15" width="4" height="8" filterUnits="userSpaceOnUse" color-interpolation-filters="sRGB">
<feFlood flood-opacity="0" result="BackgroundImageFix"/>
<feBlend mode="normal" in="SourceGraphic" in2="BackgroundImageFix" result="shape"/>
<feColorMatrix in="SourceAlpha" type="matrix" values="0 0 0 0 0 0 0 0 0 0 0 0 0 0 0 0 0 0 127 0" result="hardAlpha"/>
<feOffset dy="4"/>
<feGaussianBlur stdDeviation="2"/>
<feComposite in2="hardAlpha" operator="arithmetic" k2="-1" k3="1"/>
<feColorMatrix type="matrix" values="0 0 0 0 0 0 0 0 0 0 0 0 0 0 0 0 0 0 0.25 0"/>
<feBlend mode="normal" in2="shape" result="effect1_innerShadow_130_3"/>
</filter>
<filter id="filter5_i_130_3" x="95" y="15" width="4" height="8" filterUnits="userSpaceOnUse" color-interpolation-filters="sRGB">
<feFlood flood-opacity="0" result="BackgroundImageFix"/>
<feBlend mode="normal" in="SourceGraphic" in2="BackgroundImageFix" result="shape"/>
<feColorMatrix in="SourceAlpha" type="matrix" values="0 0 0 0 0 0 0 0 0 0 0 0 0 0 0 0 0 0 127 0" result="hardAlpha"/>
<feOffset dy="4"/>
<feGaussianBlur stdDeviation="2"/>
<feComposite in2="hardAlpha" operator="arithmetic" k2="-1" k3="1"/>
<feColorMatrix type="matrix" values="0 0 0 0 0 0 0 0 0 0 0 0 0 0 0 0 0 0 0.25 0"/>
<feBlend mode="normal" in2="shape" result="effect1_innerShadow_130_3"/>
</filter>
</defs>
</svg>
