<svg width="80" height="84" viewBox="0 0 80 84" fill="none" xmlns="http://www.w3.org/2000/svg">
<g filter="url(#filter0_i_14_552)">
<path d="M47.0476 84V61.5938C47.0476 59.7654 47.7901 58.0118 49.1118 56.7189C50.4335 55.426 52.2261 54.6996 54.0952 54.6996V27.1228C54.0952 27.1228 48.8095 23.6757 40 23.6757C31.1905 23.6757 25.9048 27.1228 25.9048 27.1228V54.6996C27.7739 54.6996 29.5665 55.426 30.8882 56.7189C32.2099 58.0118 32.9524 59.7654 32.9524 61.5938V84M10.0476 84V61.5938C10.0476 59.7654 9.3051 58.0118 7.98342 56.7189C6.66173 55.426 4.86914 54.6996 3 54.6996V27.1228C3 27.1228 8.28571 23.6757 17.0952 23.6757M69.9524 84V61.5938C69.9524 59.7654 70.6949 58.0118 72.0166 56.7189C73.3383 55.426 75.1309 54.6996 77 54.6996V27.1228C77 27.1228 71.7143 23.6757 62.9048 23.6757M39.4714 16.7815C39.4714 16.7815 33.8333 13.3344 33.8333 9.02553C33.8333 7.42746 34.4823 5.89484 35.6374 4.76484C36.7926 3.63483 38.3593 3 39.993 3C41.6266 3 43.1933 3.63483 44.3485 4.76484C45.5036 5.89484 46.1526 7.42746 46.1526 9.02553C46.1526 13.3344 40.5286 16.7815 40.5286 16.7815H39.4714ZM16.5667 16.7815C16.5667 16.7815 10.9286 13.3344 10.9286 9.02553C10.9286 8.23425 11.0879 7.45071 11.3974 6.71966C11.707 5.98861 12.1607 5.32436 12.7327 4.76484C13.3047 4.20532 13.9837 3.76148 14.731 3.45867C15.4783 3.15585 16.2793 3 17.0882 3C17.8971 3 18.6981 3.15585 19.4454 3.45867C20.1927 3.76148 20.8717 4.20532 21.4437 4.76484C22.0157 5.32436 22.4694 5.98861 22.7789 6.71966C23.0885 7.45071 23.2478 8.23425 23.2478 9.02553C23.2478 13.3344 17.6238 16.7815 17.6238 16.7815H16.5667ZM62.3762 16.7815C62.3762 16.7815 56.7381 13.3344 56.7381 9.02553C56.7381 7.42746 57.3871 5.89484 58.5422 4.76484C59.6974 3.63483 61.2641 3 62.8977 3C64.5313 3 66.0981 3.63483 67.2532 4.76484C68.4084 5.89484 69.0573 7.42746 69.0573 9.02553C69.0573 13.3344 63.4333 16.7815 63.4333 16.7815H62.3762Z" stroke="url(#paint0_linear_14_552)" stroke-width="5"/>
</g>
<defs>
<filter id="filter0_i_14_552" x="0.5" y="0.5" width="79" height="87.5" filterUnits="userSpaceOnUse" color-interpolation-filters="sRGB">
<feFlood flood-opacity="0" result="BackgroundImageFix"/>
<feBlend mode="normal" in="SourceGraphic" in2="BackgroundImageFix" result="shape"/>
<feColorMatrix in="SourceAlpha" type="matrix" values="0 0 0 0 0 0 0 0 0 0 0 0 0 0 0 0 0 0 127 0" result="hardAlpha"/>
<feOffset dy="4"/>
<feGaussianBlur stdDeviation="2"/>
<feComposite in2="hardAlpha" operator="arithmetic" k2="-1" k3="1"/>
<feColorMatrix type="matrix" values="0 0 0 0 0 0 0 0 0 0 0 0 0 0 0 0 0 0 0.25 0"/>
<feBlend mode="normal" in2="shape" result="effect1_innerShadow_14_552"/>
</filter>
<linearGradient id="paint0_linear_14_552" x1="40" y1="3" x2="40" y2="84" gradientUnits="userSpaceOnUse">
<stop stop-color="white"/>
<stop offset="1" stop-color="#4849F0"/>
</linearGradient>
</defs>
</svg>
