<svg width="23" height="17" viewBox="0 0 23 17" fill="none" xmlns="http://www.w3.org/2000/svg">
<path d="M13.8769 8.14986L13.8587 8.13924C13.4861 7.92133 13.0604 7.80393 12.625 7.8001C12.1897 7.79626 11.7619 7.90613 11.3852 8.1175C11.0087 8.32881 10.6974 8.63356 10.4817 8.9993C10.266 9.36493 10.153 9.77915 10.153 10.2C10.153 10.6209 10.266 11.0351 10.4817 11.4007C10.6974 11.7664 11.0087 12.0712 11.3852 12.2825C11.7619 12.4939 12.1897 12.6037 12.625 12.5999C13.0604 12.5961 13.4861 12.4787 13.8587 12.2608L14.3635 11.9656L14.8683 12.2607C15.1937 12.451 15.5602 12.565 15.9393 12.5931C16.3183 12.6212 16.6985 12.5624 17.0499 12.4219C17.4012 12.2814 17.7134 12.0632 17.9629 11.7856C18.2123 11.5081 18.3922 11.1786 18.4898 10.8233C18.5873 10.468 18.6002 10.0956 18.5274 9.73476C18.4546 9.37394 18.298 9.03349 18.0686 8.74025C17.8392 8.44696 17.5431 8.20866 17.2026 8.04509C16.8621 7.8815 16.487 7.7974 16.1069 7.79998L13.8769 8.14986ZM13.8769 8.14986L12.9293 8.07018C12.8224 8.0612 12.715 8.06016 12.6081 8.06707C12.0576 8.07773 11.5292 8.2978 11.1349 8.68636C10.7301 9.08528 10.5 9.62945 10.5 10.2C10.5 10.7705 10.7301 11.3147 11.1349 11.7136C11.5292 12.1022 12.0576 12.3223 12.6081 12.3329C12.715 12.3398 12.8224 12.3388 12.9293 12.3298L13.8455 12.2528V11.3333V11.2427V11.0634L13.7833 10.8954C13.606 10.4168 13.606 9.89253 13.7833 9.41396L14.1847 8.32989M13.8769 8.14986L14.1847 8.32989M14.1847 8.32989L14.3635 8.43444L14.8683 8.13922C15.2424 7.92046 15.6698 7.80301 16.1068 7.79998L14.1847 8.32989ZM21.0651 1.88636L20.3694 2.59225L21.0651 1.88636C20.6608 1.48794 20.1155 1.26667 19.55 1.26667H3.45C2.88446 1.26667 2.33919 1.48793 1.9349 1.88636C1.53012 2.28528 1.3 2.82945 1.3 3.4V13.6C1.3 14.1705 1.53012 14.7147 1.9349 15.1136C2.33919 15.5121 2.88445 15.7333 3.45 15.7333H19.55C20.1155 15.7333 20.6608 15.5121 21.0651 15.1136C21.4699 14.7147 21.7 14.1705 21.7 13.6V3.4C21.7 2.82945 21.4699 2.28528 21.0651 1.88636ZM14.5849 8.68636L15.2868 9.39861L14.5849 8.68637C14.2831 8.98375 14.076 9.36442 13.9919 9.78105C13.9078 10.1978 13.9511 10.6296 14.1157 11.0212C14.2802 11.4126 14.5578 11.7449 14.9111 11.9775L15.4611 11.1423L14.9111 11.9775C15.2643 12.2101 15.678 12.3333 16.1 12.3333C16.6655 12.3333 17.2108 12.1121 17.6151 11.7136C18.0199 11.3147 18.25 10.7705 18.25 10.2C18.25 9.77479 18.122 9.36035 17.8839 9.00917C17.6459 8.65817 17.3092 8.38679 16.918 8.2271C16.527 8.06747 16.0975 8.02592 15.6833 8.10712C15.269 8.18833 14.8865 8.38914 14.5849 8.68636ZM3.45 1H19.55C20.2045 1 20.8292 1.25635 21.2876 1.70809C21.7455 2.15934 22 2.76823 22 3.4V13.6C22 14.2318 21.7455 14.8407 21.2876 15.2919C20.8292 15.7437 20.2045 16 19.55 16H3.45C2.79555 16 2.17079 15.7437 1.71241 15.2919C1.25452 14.8407 1 14.2318 1 13.6V3.4C1 2.76823 1.25452 2.15934 1.71241 1.70809C2.17079 1.25635 2.79555 1 3.45 1Z" stroke="#4849F0" stroke-width="2"/>
</svg>
