<svg width="117" height="100" viewBox="0 0 117 100" fill="none" xmlns="http://www.w3.org/2000/svg">
<g filter="url(#filter0_i_14_1022)">
<path d="M99.45 0H17.55C12.8955 0 8.43154 2.10714 5.14028 5.85786C1.84901 9.60859 0 14.6957 0 20V80C0 85.3043 1.84901 90.3914 5.14028 94.1421C8.43154 97.8929 12.8955 100 17.55 100H99.45C104.105 100 108.568 97.8929 111.86 94.1421C115.151 90.3914 117 85.3043 117 80V20C117 14.6957 115.151 9.60859 111.86 5.85786C108.568 2.10714 104.105 0 99.45 0ZM105.3 80C105.3 81.7681 104.684 83.4638 103.587 84.714C102.489 85.9643 101.002 86.6667 99.45 86.6667H17.55C15.9985 86.6667 14.5105 85.9643 13.4134 84.714C12.3163 83.4638 11.7 81.7681 11.7 80V20C11.7 18.2319 12.3163 16.5362 13.4134 15.286C14.5105 14.0357 15.9985 13.3333 17.55 13.3333H99.45C101.002 13.3333 102.489 14.0357 103.587 15.286C104.684 16.5362 105.3 18.2319 105.3 20V80ZM81.9 40C78.7898 40.0248 75.7412 40.9911 73.0665 42.8C70.4018 40.9982 67.3661 40.0324 64.2678 40.0008C61.1695 39.9692 58.1191 40.8729 55.4266 42.6202C52.7341 44.3674 50.4955 46.8958 48.9383 49.9484C47.3811 53.001 46.5608 56.469 46.5608 60C46.5608 63.531 47.3811 66.999 48.9383 70.0516C50.4955 73.1042 52.7341 75.6326 55.4266 77.3798C58.1191 79.127 61.1695 80.0308 64.2678 79.9992C67.3661 79.9676 70.4018 79.0018 73.0665 77.2C75.3936 78.7734 78.0085 79.7123 80.7068 79.9433C83.405 80.1743 86.1137 79.6912 88.6209 78.5316C91.1282 77.372 93.3663 75.5675 95.1602 73.2589C96.9541 70.9504 98.2553 68.2004 98.9621 65.2238C99.6689 62.2472 99.7622 59.1247 99.2347 56.1003C98.7071 53.0758 97.573 50.2313 95.921 47.7891C94.269 45.3469 92.1439 43.373 89.7116 42.0218C87.2793 40.6706 84.6058 39.9787 81.9 40ZM65.3445 66.6667C65.0136 66.6988 64.6809 66.6988 64.35 66.6667C62.7985 66.6667 61.3105 65.9643 60.2134 64.714C59.1163 63.4638 58.5 61.7681 58.5 60C58.5 58.2319 59.1163 56.5362 60.2134 55.286C61.3105 54.0357 62.7985 53.3333 64.35 53.3333C64.6809 53.3012 65.0136 53.3012 65.3445 53.3333C64.0207 57.4667 64.0207 62 65.3445 66.1333V66.6667ZM81.9 66.6667C80.743 66.6667 79.6119 66.2757 78.6499 65.5431C77.6879 64.8106 76.9381 63.7694 76.4953 62.5512C76.0525 61.333 75.9367 59.9926 76.1624 58.6994C76.3881 57.4062 76.9453 56.2183 77.7634 55.286C78.5816 54.3536 79.6239 53.7187 80.7587 53.4614C81.8935 53.2042 83.0697 53.3362 84.1387 53.8408C85.2076 54.3454 86.1213 55.1999 86.7641 56.2962C87.4069 57.3925 87.75 58.6815 87.75 60C87.75 61.7681 87.1337 63.4638 86.0366 64.714C84.9395 65.9643 83.4515 66.6667 81.9 66.6667Z" fill="white"/>
</g>
<path d="M72.7864 43.2142L73.0665 43.4036L73.3466 43.2142C75.9431 41.4583 78.8962 40.524 81.904 40.5C84.521 40.4793 87.1097 41.1484 89.4688 42.4589C91.8283 43.7697 93.8962 45.6881 95.5069 48.0692C97.1177 50.4506 98.2262 53.2283 98.7421 56.1862C99.258 59.144 99.1667 62.198 98.4756 65.1083C97.7846 68.0186 96.5134 70.7027 94.7654 72.9521C93.0175 75.2014 90.8416 76.9537 88.4111 78.0778C85.981 79.2016 83.3593 79.6686 80.7494 79.4451C78.1394 79.2217 75.6057 78.3133 73.3465 76.7858L73.0665 76.5964L72.7864 76.7858C70.1998 78.5349 67.259 79.4687 64.2627 79.4992C61.2664 79.5298 58.312 78.6561 55.6988 76.9604C53.0849 75.2642 50.9038 72.8043 49.3837 69.8244C47.8635 66.8443 47.0608 63.4545 47.0608 60C47.0608 56.5455 47.8635 53.1557 49.3837 50.1756C50.9038 47.1957 53.0849 44.7358 55.6988 43.0396C58.312 41.3439 61.2664 40.4702 64.2627 40.5008C67.259 40.5313 70.1998 41.4651 72.7864 43.2142ZM65.3929 67.1643L65.8445 67.1204V66.6667V66.1333V66.0552L65.8207 65.9808C64.5287 61.9467 64.5287 57.52 65.8207 53.4858L66.0097 52.8956L65.3929 52.8357C65.0378 52.8012 64.6809 52.8004 64.3258 52.8334C62.6279 52.8407 61.0163 53.6129 59.8376 54.9562C58.6552 56.3037 58 58.1188 58 60C58 61.8811 58.6552 63.6963 59.8376 65.0438C61.0163 66.387 62.6278 67.1593 64.3257 67.1666C64.6808 67.1996 65.0378 67.1988 65.3929 67.1643ZM17.55 0.5H99.45C103.949 0.5 108.28 2.53629 111.484 6.18765C114.69 9.8411 116.5 14.8087 116.5 20V80C116.5 85.1913 114.69 90.1589 111.484 93.8123C108.28 97.4637 103.949 99.5 99.45 99.5H17.55C13.0507 99.5 8.72016 97.4637 5.5161 93.8124C2.3102 90.1589 0.5 85.1913 0.5 80V20C0.5 14.8087 2.3102 9.8411 5.5161 6.18765C8.72016 2.53629 13.0507 0.5 17.55 0.5ZM103.962 85.0438C105.145 83.6963 105.8 81.8811 105.8 80V20C105.8 18.1188 105.145 16.3037 103.962 14.9562C102.778 13.6066 101.157 12.8333 99.45 12.8333H17.55C15.8432 12.8333 14.2219 13.6066 13.0376 14.9562C11.8552 16.3037 11.2 18.1188 11.2 20V80C11.2 81.8811 11.8552 83.6963 13.0376 85.0438C14.2219 86.3934 15.8432 87.1667 17.55 87.1667H99.45C101.157 87.1667 102.778 86.3934 103.962 85.0438ZM78.347 65.9409C79.3919 66.7366 80.6284 67.1667 81.9 67.1667C83.6068 67.1667 85.2281 66.3934 86.4124 65.0438C87.5948 63.6963 88.25 61.8811 88.25 60C88.25 58.596 87.8849 57.2193 87.1954 56.0433C86.5057 54.867 85.519 53.9395 84.3521 53.3886C83.1839 52.8372 81.8937 52.6915 80.6482 52.9738C79.4035 53.2559 78.2704 53.9501 77.3876 54.9562C76.5053 55.9616 75.9104 57.2353 75.6698 58.6134C75.4293 59.9916 75.5523 61.4206 76.0254 62.722C76.4984 64.0235 77.3031 65.1461 78.347 65.9409Z" stroke="white"/>
<defs>
<filter id="filter0_i_14_1022" x="0" y="0" width="117" height="104" filterUnits="userSpaceOnUse" color-interpolation-filters="sRGB">
<feFlood flood-opacity="0" result="BackgroundImageFix"/>
<feBlend mode="normal" in="SourceGraphic" in2="BackgroundImageFix" result="shape"/>
<feColorMatrix in="SourceAlpha" type="matrix" values="0 0 0 0 0 0 0 0 0 0 0 0 0 0 0 0 0 0 127 0" result="hardAlpha"/>
<feOffset dy="4"/>
<feGaussianBlur stdDeviation="2"/>
<feComposite in2="hardAlpha" operator="arithmetic" k2="-1" k3="1"/>
<feColorMatrix type="matrix" values="0 0 0 0 0 0 0 0 0 0 0 0 0 0 0 0 0 0 0.25 0"/>
<feBlend mode="normal" in2="shape" result="effect1_innerShadow_14_1022"/>
</filter>
</defs>
</svg>
