<svg width="23" height="23" viewBox="0 0 23 23" fill="none" xmlns="http://www.w3.org/2000/svg">
<path d="M0.571158 5.33236L0.57116 5.33231C0.597041 4.22056 1.05812 3.14293 1.88875 2.28998C1.88878 2.28995 1.8888 2.28993 1.88883 2.2899L3.49605 0.640249C3.56817 0.570589 3.67803 0.51985 3.8063 0.513185C3.93631 0.506429 4.05663 0.546559 4.14158 0.612981C4.225 0.678199 4.26287 0.758189 4.26903 0.828794C4.27503 0.897589 4.25267 0.975044 4.18906 1.04453L2.58194 2.6952C2.5819 2.69524 2.58186 2.69529 2.58181 2.69533C1.87335 3.42253 1.46426 4.35957 1.44112 5.34469L1.44111 5.34494L1.37127 8.38253C1.37127 8.38253 1.37127 8.38254 1.37127 8.38254C1.37127 8.38255 1.37127 8.38256 1.37127 8.38256C1.37042 8.41889 1.36165 8.45649 1.34345 8.49366C1.32515 8.53106 1.29694 8.56864 1.25751 8.60254L1.58347 8.98168L1.25751 8.60254C1.21798 8.63652 1.16849 8.6656 1.11078 8.68577C1.05303 8.70596 0.98995 8.71621 0.925594 8.71502C0.861231 8.71383 0.798962 8.70126 0.742714 8.67915C0.686489 8.65705 0.639046 8.62655 0.601778 8.59175C0.564622 8.55705 0.538682 8.51919 0.522426 8.48186C0.506285 8.44479 0.499251 8.40738 0.500063 8.37111C0.500063 8.37109 0.500064 8.37108 0.500064 8.37106C0.500065 8.37102 0.500066 8.37098 0.500067 8.37094L0.571158 5.33236Z" stroke="#4849F0"/>
<path d="M9.55761 3.38328H9.55764H10.2524H10.7524V2.88328V2.04509C10.7524 1.90011 10.8162 1.74834 10.9514 1.62721C11.0884 1.50446 11.2848 1.42749 11.4997 1.42749C11.7145 1.42749 11.911 1.50446 12.048 1.62721C12.1832 1.74834 12.247 1.90011 12.247 2.04509V2.88328V3.38328H12.747L13.4417 3.38328L13.4417 3.38328C14.6673 3.38321 15.8385 3.80211 16.7183 4.54242C17.5966 5.28146 18.1153 6.28117 18.189 7.3326C18.189 7.33264 18.189 7.33269 18.189 7.33273L18.4647 11.2822L18.4647 11.2827C18.5785 12.8909 19.181 14.4353 20.1998 15.7492L20.2 15.7495C20.3438 15.9347 20.4279 16.1448 20.4502 16.3589C20.4724 16.5726 20.433 16.7899 20.3323 16.9909C20.2313 17.1926 20.0704 17.374 19.8591 17.5133C19.6476 17.6526 19.3951 17.7432 19.1259 17.7721C19.1259 17.7721 19.1259 17.7721 19.1259 17.7721L14.8764 18.2281L14.4297 18.276V18.7252V19.9266C14.4297 20.5903 14.136 21.2395 13.5914 21.7275C13.0451 22.217 12.2934 22.5 11.4997 22.5C10.7059 22.5 9.95426 22.217 9.40792 21.7275C8.86338 21.2395 8.56962 20.5903 8.56962 19.9266V18.7252V18.2761L8.12309 18.2281L3.87364 17.771C3.87362 17.771 3.87359 17.771 3.87357 17.771C3.6045 17.742 3.35224 17.6514 3.14088 17.5121C2.92974 17.373 2.76887 17.1916 2.6679 16.9901C2.56723 16.7892 2.52778 16.572 2.54992 16.3583C2.57208 16.1444 2.65598 15.9344 2.79956 15.7492C3.81837 14.4353 4.42081 12.8909 4.53463 11.2827L4.53466 11.2822L4.81031 7.33273C4.88397 6.28126 5.40273 5.28149 6.28103 4.54242C7.1608 3.80211 8.332 3.38321 9.55761 3.38328ZM5.40554 11.3176C5.28449 13.026 4.64394 14.6775 3.54623 16.0928L9.55764 4.05968C8.58504 4.05958 7.64059 4.39117 6.91797 4.99921C6.19388 5.60849 5.74399 6.4536 5.67995 7.36791L5.67993 7.36819L5.40557 11.3171C5.40556 11.3173 5.40555 11.3174 5.40554 11.3176ZM17.595 11.3172L17.3194 7.36803L17.3194 7.36791C17.2554 6.4536 16.8055 5.60849 16.0814 4.99921C15.3587 4.39117 14.4143 4.05958 13.4417 4.05968C13.4417 4.05968 13.4417 4.05968 13.4417 4.05968H9.55769L17.595 11.3172ZM4.33616 16.706C4.33645 16.7056 4.33675 16.7052 4.33705 16.7048C4.33668 16.7053 4.33631 16.7058 4.33594 16.7062L4.33616 16.706ZM9.94056 18.5884H9.44056V19.0884V19.9266C9.44056 21.0241 10.4159 21.8236 11.4997 21.8236C12.5834 21.8236 13.5588 21.0241 13.5588 19.9266V19.0884V18.5884H13.0588H9.94056Z" stroke="#4849F0"/>
<path d="M20.4184 2.69406L20.4185 2.69423C21.1269 3.42194 21.5355 4.35949 21.5579 5.34492L21.5579 5.3447L21.0581 5.3564L21.5579 5.34504L21.629 8.38121L21.629 8.38138C21.6307 8.45243 21.6637 8.53335 21.7428 8.60139C21.8237 8.67094 21.9426 8.71632 22.0747 8.71387C22.2068 8.71143 22.3223 8.66176 22.3985 8.5906C22.4728 8.52122 22.5018 8.44074 22.5002 8.36997L20.4184 2.69406ZM20.4184 2.69406L18.807 1.04017C18.807 1.04015 18.807 1.04012 18.8069 1.04009C18.8069 1.04007 18.8069 1.04004 18.8069 1.04002C18.7382 0.96939 18.7136 0.889485 18.719 0.818933C18.7244 0.747604 18.7621 0.666516 18.8464 0.60048C18.9326 0.533172 19.0549 0.492982 19.1865 0.501009C19.3181 0.509033 19.4293 0.563261 19.5 0.635893L19.5001 0.635904L21.1115 2.28987C21.1115 2.2899 21.1115 2.28992 21.1116 2.28995C21.9422 3.1429 22.4033 4.22053 22.4291 5.33228L22.4291 5.33234L22.5002 8.3698L20.4184 2.69406Z" stroke="#4849F0"/>
</svg>
