<svg width="90" height="100" viewBox="0 0 90 100" fill="none" xmlns="http://www.w3.org/2000/svg">
<g filter="url(#filter0_i_14_1214)">
<path d="M17.8104 6.03856C18.4258 5.30739 18.7286 4.36518 18.654 3.41419C18.5794 2.4632 18.1332 1.57925 17.4113 0.952101C16.6894 0.324953 15.7492 0.0046052 14.7927 0.0598285C13.8362 0.115052 12.9395 0.541444 12.2953 1.24747L5.9894 8.43896C2.41371 12.5185 0.392396 17.7197 0.278981 23.1329L0.000781698 36.3449C-0.00915292 36.8234 0.0756916 37.2993 0.250472 37.7452C0.425252 38.1912 0.686545 38.5984 1.01943 38.9439C1.35232 39.2893 1.75028 39.566 2.19059 39.7583C2.6309 39.9506 3.10495 40.0546 3.58565 40.0645C4.06636 40.0744 4.54432 39.9899 4.99223 39.8159C5.44015 39.6419 5.84926 39.3818 6.19619 39.0504C6.54313 38.719 6.8211 38.3228 7.01424 37.8844C7.20737 37.446 7.31189 36.9741 7.32183 36.4955L7.59515 23.2884C7.67345 19.5844 9.05728 16.0258 11.5046 13.2349L17.8104 6.03856Z" fill="white"/>
<path fill-rule="evenodd" clip-rule="evenodd" d="M16.8722 31.7292C17.1999 26.5306 19.5054 21.6518 23.3192 18.0859C27.133 14.5201 32.1685 12.5353 37.4004 12.5357H40.119V8.89134C40.119 7.60262 40.6332 6.36669 41.5485 5.45543C42.4638 4.54417 43.7052 4.03223 44.9997 4.03223C46.2941 4.03223 47.5356 4.54417 48.4509 5.45543C49.3662 6.36669 49.8804 7.60262 49.8804 8.89134V12.5357H52.5989C57.8309 12.5353 62.8664 14.5201 66.6802 18.0859C70.494 21.6518 72.7994 26.5306 73.1272 31.7292L74.2058 48.9013C74.6228 55.4476 76.8305 61.7556 80.5898 67.1424C81.3676 68.2555 81.8429 69.55 81.9694 70.9C82.0959 72.2501 81.8693 73.6098 81.3116 74.8468C80.754 76.0839 79.8842 77.1562 78.787 77.9595C77.6898 78.7629 76.4025 79.2698 75.0502 79.4311L58.4216 81.4136V86.6372C58.4216 90.1812 57.0075 93.58 54.4904 96.0859C51.9733 98.5919 48.5594 99.9997 44.9997 99.9997C41.44 99.9997 38.026 98.5919 35.5089 96.0859C32.9918 93.58 31.5777 90.1812 31.5777 86.6372V81.4136L14.9492 79.4263C13.5977 79.2645 12.3112 78.7575 11.2147 77.9545C10.1182 77.1515 9.24892 76.0797 8.69138 74.8434C8.13385 73.6071 7.90698 72.2482 8.03282 70.8988C8.15867 69.5495 8.63294 68.2554 9.40957 67.1424C13.1689 61.7556 15.3766 55.4476 15.7935 48.9013L16.8722 31.7292ZM37.4004 19.8244C34.0307 19.8239 30.7874 21.1022 28.331 23.3988C25.8746 25.6954 24.3897 28.8377 24.1786 32.1859L23.1048 49.3581C22.603 57.2334 19.9463 64.822 15.4226 71.3018C15.3663 71.3823 15.3319 71.4759 15.3227 71.5736C15.3135 71.6712 15.3299 71.7696 15.3702 71.8591C15.4104 71.9486 15.4733 72.0262 15.5526 72.0844C15.6319 72.1425 15.725 72.1793 15.8228 72.191L34.062 74.3728C41.3294 75.2377 48.67 75.2377 55.9374 74.3728L74.1766 72.191C74.2744 72.1793 74.3674 72.1425 74.4468 72.0844C74.5261 72.0262 74.5889 71.9486 74.6292 71.8591C74.6695 71.7696 74.6858 71.6712 74.6767 71.5736C74.6675 71.4759 74.633 71.3823 74.5768 71.3018C70.0548 64.8215 67.3998 57.233 66.8994 49.3581L65.8208 32.1859C65.6097 28.8377 64.1248 25.6954 61.6684 23.3988C59.212 21.1022 55.9687 19.8239 52.5989 19.8244H37.4004ZM44.9997 92.7111C41.632 92.7111 38.8988 89.99 38.8988 86.6372V82.9928H51.1006V86.6372C51.1006 89.99 48.3674 92.7111 44.9997 92.7111Z" fill="white"/>
<path d="M72.5409 0.89791C71.8097 1.53335 71.3619 2.43189 71.2961 3.39594C71.2302 4.36 71.5515 5.31065 72.1895 6.03885L78.4954 13.2303C80.942 16.0232 82.3241 19.5837 82.3999 23.2887L82.6781 36.4909C82.6982 37.4575 83.1031 38.3765 83.8038 39.0458C84.5044 39.7151 85.4435 40.0799 86.4143 40.0599C87.3851 40.04 88.3082 39.6369 88.9805 38.9393C89.6528 38.2417 90.0192 37.3068 89.9992 36.3403L89.721 23.1332C89.6076 17.72 87.5862 12.5188 84.0105 8.43926L77.7047 1.24777C77.0664 0.519814 76.1639 0.0740234 75.1956 0.00841667C74.2272 -0.0571901 73.2723 0.262758 72.5409 0.89791Z" fill="white"/>
</g>
<defs>
<filter id="filter0_i_14_1214" x="0" y="0" width="90" height="104" filterUnits="userSpaceOnUse" color-interpolation-filters="sRGB">
<feFlood flood-opacity="0" result="BackgroundImageFix"/>
<feBlend mode="normal" in="SourceGraphic" in2="BackgroundImageFix" result="shape"/>
<feColorMatrix in="SourceAlpha" type="matrix" values="0 0 0 0 0 0 0 0 0 0 0 0 0 0 0 0 0 0 127 0" result="hardAlpha"/>
<feOffset dy="4"/>
<feGaussianBlur stdDeviation="2"/>
<feComposite in2="hardAlpha" operator="arithmetic" k2="-1" k3="1"/>
<feColorMatrix type="matrix" values="0 0 0 0 0 0 0 0 0 0 0 0 0 0 0 0 0 0 0.25 0"/>
<feBlend mode="normal" in2="shape" result="effect1_innerShadow_14_1214"/>
</filter>
</defs>
</svg>
