<svg width="25" height="26" viewBox="0 0 25 26" fill="none" xmlns="http://www.w3.org/2000/svg">
<path d="M22.0833 1H2.91667C2.40834 1 1.92082 1.21071 1.56138 1.58579C1.20193 1.96086 1 2.46957 1 3V23C1 23.5304 1.20193 24.0391 1.56138 24.4142C1.92082 24.7893 2.40834 25 2.91667 25H22.0833C22.5917 25 23.0792 24.7893 23.4386 24.4142C23.7981 24.0391 24 23.5304 24 23V3C24 2.46957 23.7981 1.96086 23.4386 1.58579C23.0792 1.21071 22.5917 1 22.0833 1Z" stroke="#4849F0" stroke-width="2" stroke-linecap="round" stroke-linejoin="round"/>
<path d="M10.584 17.6667L13.7785 20.3333L18.8896 13.6667M6.11182 7H18.8896M6.11182 12.3333H11.2229" stroke="#4849F0" stroke-linecap="round" stroke-linejoin="round"/>
</svg>
