<svg width="24" height="24" viewBox="0 0 24 24" fill="none" xmlns="http://www.w3.org/2000/svg">
<path d="M5.38061 7.45133L5.4164 6.95262C5.37596 6.94971 5.35151 6.93713 5.33561 6.92468C5.31795 6.91086 5.30274 6.89058 5.29349 6.86502C5.27589 6.8164 5.28162 6.75876 5.33416 6.70622L7.68683 4.35355L7.83328 4.20711V4V1.13688C8.02082 1.06836 8.2993 0.976925 8.66408 0.88477C9.41922 0.693997 10.5447 0.5 11.9999 0.5C13.4552 0.5 14.5805 0.693996 15.3355 0.884763C15.7001 0.976906 15.9785 1.06833 16.1659 1.13684V4V4.20715L16.3124 4.3536L18.6657 6.70622C18.7184 6.75885 18.7239 6.81632 18.7064 6.86458C18.6972 6.88999 18.6821 6.91019 18.6644 6.924C18.6485 6.93643 18.624 6.94904 18.5835 6.95195L18.6193 7.45067M5.38061 7.45133L5.41597 6.95259C5.99493 6.99363 6.74926 7.03936 7.66144 7.07798C7.82329 7.08476 7.99027 7.09132 8.16238 7.09767L8.32974 7.10385C9.38422 7.14091 10.6148 7.16667 11.9999 7.16667C13.1862 7.16667 14.2589 7.14793 15.2045 7.11931L15.1985 7.09733H15.8553H15.8666L15.8758 7.59168L16.3372 7.46423C16.5218 8.13237 16.5494 8.83411 16.4181 9.51471C16.2868 10.1953 16 10.8364 15.5802 11.3879C15.1603 11.9394 14.6187 12.3865 13.9976 12.6943C13.3765 13.002 12.6928 13.1622 11.9996 13.1622C11.3065 13.1622 10.6227 13.002 10.0016 12.6943C9.38051 12.3865 8.83892 11.9394 8.41906 11.3879C7.99921 10.8364 7.71243 10.1953 7.58111 9.51471C7.48922 9.03846 7.47518 8.55186 7.53826 8.07366C7.42452 8.0688 7.31325 8.06382 7.20445 8.05874C7.13227 8.63222 7.1634 9.21518 7.29755 9.77974C7.4643 10.4815 7.78599 11.137 8.23904 11.6982C8.69209 12.2595 9.265 12.7122 9.91577 13.0232C10.5665 13.3342 11.2787 13.4957 11.9999 13.4957C12.7212 13.4957 13.4333 13.3342 14.0841 13.0232C14.7349 12.7122 15.3078 12.2595 15.7608 11.6982C16.2139 11.137 16.5356 10.4815 16.7023 9.77974C16.8691 9.07801 16.8767 8.34785 16.7245 7.6428L16.6006 7.06867L17.1872 7.03801C17.653 7.01367 18.1186 6.98497 18.5839 6.95192L18.6193 7.45067M5.38061 7.45133C4.82328 7.41133 4.58528 6.748 4.98061 6.35267L7.33328 4L6.29786 7.43187C6.29229 7.45768 6.2869 7.48353 6.28168 7.5094C5.94624 7.48983 5.64534 7.4701 5.38061 7.45133ZM18.6193 7.45067C18.319 7.47199 18.0187 7.49152 17.7182 7.50925C17.713 7.48343 17.7076 7.45763 17.702 7.43187L17.2133 7.53733L17.2394 8.03665C17.2583 8.03566 17.2772 8.03467 17.2961 8.03367M18.6193 7.45067C19.1766 7.41067 19.4146 6.748 19.0193 6.35267L16.6659 4L17.2961 8.03367M17.2961 8.03367C17.3698 8.65441 17.3339 9.28463 17.1888 9.89533C17.0048 10.6697 16.6498 11.393 16.1499 12.0123C15.65 12.6316 15.0178 13.1311 14.2997 13.4743C13.5816 13.8175 12.7958 13.9957 11.9999 13.9957C11.2041 13.9957 10.4183 13.8175 9.70016 13.4743C8.98207 13.1311 8.34989 12.6316 7.84998 12.0123C7.35007 11.393 6.9951 10.6697 6.8111 9.89533C6.66597 9.28461 6.63011 8.65438 6.7038 8.03362C6.7225 8.03461 6.74129 8.03559 6.76016 8.03658L17.2961 8.03367ZM8.04017 8.09395C7.89637 8.08851 7.75601 8.08288 7.61913 8.07708L8.04017 8.09395ZM8.04017 8.09395C7.9771 8.53349 7.98748 8.98166 8.07205 9.41998C8.18879 10.025 8.4437 10.5948 8.8169 11.085C9.19011 11.5753 9.67152 11.9727 10.2236 12.2462C10.7757 12.5198 11.3835 12.6622 11.9996 12.6622C12.6157 12.6622 13.2236 12.5198 13.7756 12.2462C14.3277 11.9727 14.8091 11.5753 15.1823 11.085C15.5555 10.5948 15.8104 10.025 15.9272 9.41998C16.0384 8.84334 16.0213 8.24963 15.8774 7.68098L8.04017 8.09395ZM11.9999 7.66667C13.2427 7.66667 14.3616 7.6462 15.3415 7.61532L8.65776 7.61507C9.63801 7.64603 10.7572 7.66667 11.9999 7.66667Z" stroke="#4849F0"/>
<path d="M20.8332 14V16.8334H20.4998V15.26V14.315L19.7185 14.8467L17.0519 16.6613L16.8332 16.8102V17.0747V22.6667C16.8332 22.9585 16.8834 23.2392 16.9756 23.5H7.0241C7.1163 23.2392 7.1665 22.9585 7.1665 22.6667V17.0234V16.7557L6.94381 16.6073L4.27714 14.83L3.49984 14.3119V15.246V16.8334H3.1665V14V14C3.1665 13.9698 3.17469 13.9402 3.19019 13.9143C3.2057 13.8884 3.22794 13.8672 3.25454 13.853C3.28115 13.8387 3.31112 13.832 3.34126 13.8335C3.3714 13.8349 3.40057 13.8445 3.42567 13.8613L3.42584 13.8614L7.22317 16.3927L7.41834 16.5228L7.64316 16.4559L11.9498 15.1739L11.9506 15.1737C11.9662 15.169 11.9824 15.1667 11.9987 15.1667H11.9998C12.0136 15.1667 12.0271 15.1683 12.0414 15.172L12.0432 15.1724L12.0434 15.1725L12.0547 15.1756L16.4105 16.4719L16.6382 16.5397L16.8345 16.4061L20.5725 13.8621L20.5727 13.8619C20.5977 13.8449 20.627 13.835 20.6572 13.8333C20.6875 13.8316 20.7177 13.8382 20.7445 13.8524C20.7712 13.8665 20.7937 13.8877 20.8093 13.9137C20.8249 13.9397 20.8332 13.9695 20.8332 13.9998V14ZM12.8091 15.7481L12.1665 15.5569V16.2274V22.6667V23.1667H12.6665H15.9998H16.4998V22.6667V17.2194V16.8465L16.1425 16.7401L12.8091 15.7481ZM7.85722 16.7401L7.49984 16.8465V17.2194V22.6667V23.1667H7.99984H11.3332H11.8332V22.6667V16.2274V15.5569L11.1906 15.7481L7.85722 16.7401Z" stroke="#4849F0"/>
<path d="M19.606 19.6058C19.8873 19.3245 20.2688 19.1665 20.6667 19.1665H22C22.3978 19.1665 22.7794 19.3245 23.0607 19.6058C23.342 19.8871 23.5 20.2687 23.5 20.6665V23.4998H20.6667C20.2688 23.4998 19.8873 23.3418 19.606 23.0605C19.3247 22.7792 19.1667 22.3977 19.1667 21.9998V20.6665C19.1667 20.2687 19.3247 19.8871 19.606 19.6058ZM0.93934 19.6058C1.22064 19.3245 1.60218 19.1665 2 19.1665H3.33333C3.73116 19.1665 4.11269 19.3245 4.39399 19.6058C4.6753 19.8871 4.83333 20.2687 4.83333 20.6665V21.9998C4.83333 22.3977 4.6753 22.7792 4.39399 23.0605C4.11269 23.3418 3.73116 23.4998 3.33333 23.4998H0.5V20.6665C0.5 20.2687 0.658035 19.8871 0.93934 19.6058Z" stroke="#4849F0"/>
</svg>
