<svg width="100" height="100" viewBox="0 0 100 100" fill="none" xmlns="http://www.w3.org/2000/svg">
<g filter="url(#filter0_i_14_1125)">
<path d="M50.0007 0C37.5007 0 30.5562 3.33333 30.5562 3.33333V16.6667L20.7534 26.4694C19.1062 28.1167 20.0979 30.8806 22.4201 31.0472C28.0229 31.4444 37.5146 31.9444 50.0007 31.9444C56.1284 31.9444 61.534 31.825 66.1118 31.6556H66.0646C66.748 34.1302 66.8505 36.7292 66.3641 39.2499C65.8777 41.7707 64.8156 44.145 63.2606 46.1876C61.7055 48.2303 59.6996 49.8862 57.3993 51.026C55.099 52.1659 52.5665 52.759 49.9993 52.759C47.432 52.759 44.8995 52.1659 42.5992 51.026C40.2989 49.8862 38.293 48.2303 36.738 46.1876C35.183 44.145 34.1208 41.7707 33.6345 39.2499C33.1481 36.7292 33.2506 34.1302 33.934 31.6556C31.8766 31.5796 29.9914 31.4963 28.2784 31.4056C27.5789 34.6471 27.6138 38.0042 28.3805 41.2306C29.1471 44.4569 30.6262 47.4708 32.7091 50.0512C34.7921 52.6316 37.4262 54.7131 40.4182 56.1431C43.4103 57.573 46.6845 58.3152 50.0007 58.3152C53.3169 58.3152 56.591 57.573 59.5831 56.1431C62.5751 54.7131 65.2092 52.6316 67.2922 50.0512C69.3751 47.4708 70.8542 44.4569 71.6209 41.2306C72.3875 38.0042 72.4224 34.6471 71.7229 31.4056C73.6767 31.3034 75.6296 31.1831 77.5812 31.0444C79.9034 30.8778 80.8951 28.1167 79.2479 26.4694L69.4423 16.6667V3.33333C69.4423 3.33333 62.5007 0 50.0007 0Z" fill="white"/>
<path fill-rule="evenodd" clip-rule="evenodd" d="M50.8002 61.2279L68.9724 66.6363L84.5474 56.0363C84.965 55.7518 85.4523 55.5866 85.9568 55.5585C86.4612 55.5304 86.9638 55.6404 87.4104 55.8767C87.857 56.113 88.2307 56.4666 88.4913 56.8995C88.7518 57.3324 88.8894 57.8282 88.8891 58.3335V72.2224H83.3336V63.5835L72.2224 71.1446V94.4446C72.2224 96.5779 73.0252 98.5279 74.3447 100H25.6558C26.9752 98.5279 27.778 96.5779 27.778 94.4446V70.9307L16.6669 63.5251V72.2224H11.1113V58.3335C11.1113 57.8306 11.2477 57.3371 11.5061 56.9057C11.7645 56.4743 12.1352 56.1211 12.5786 55.8838C13.0221 55.6466 13.5216 55.5342 14.0239 55.5586C14.5262 55.583 15.0124 55.7433 15.4308 56.0224L31.253 66.5696L49.1974 61.2279C49.4579 61.15 49.7284 61.1107 50.0002 61.1113C50.2317 61.1113 50.4604 61.14 50.6863 61.1974L50.7085 61.2029L50.8002 61.2279ZM52.778 67.614L66.6669 71.7474V94.4446H52.778V67.614ZM33.3336 71.7474L47.2224 67.614V94.4446H33.3336V71.7474Z" fill="white"/>
<path d="M86.1111 77.7778C83.901 77.7778 81.7814 78.6558 80.2186 80.2186C78.6558 81.7814 77.7778 83.901 77.7778 86.1112V91.6667C77.7778 93.8769 78.6558 95.9965 80.2186 97.5593C81.7814 99.1221 83.901 100 86.1111 100H100V86.1112C100 83.901 99.122 81.7814 97.5592 80.2186C95.9964 78.6558 93.8768 77.7778 91.6667 77.7778H86.1111ZM8.33333 77.7778C6.1232 77.7778 4.00358 78.6558 2.44078 80.2186C0.877974 81.7814 0 83.901 0 86.1112V100H13.8889C16.099 100 18.2186 99.1221 19.7814 97.5593C21.3442 95.9965 22.2222 93.8769 22.2222 91.6667V86.1112C22.2222 83.901 21.3442 81.7814 19.7814 80.2186C18.2186 78.6558 16.099 77.7778 13.8889 77.7778H8.33333Z" fill="white"/>
</g>
<defs>
<filter id="filter0_i_14_1125" x="0" y="0" width="100" height="104" filterUnits="userSpaceOnUse" color-interpolation-filters="sRGB">
<feFlood flood-opacity="0" result="BackgroundImageFix"/>
<feBlend mode="normal" in="SourceGraphic" in2="BackgroundImageFix" result="shape"/>
<feColorMatrix in="SourceAlpha" type="matrix" values="0 0 0 0 0 0 0 0 0 0 0 0 0 0 0 0 0 0 127 0" result="hardAlpha"/>
<feOffset dy="4"/>
<feGaussianBlur stdDeviation="2"/>
<feComposite in2="hardAlpha" operator="arithmetic" k2="-1" k3="1"/>
<feColorMatrix type="matrix" values="0 0 0 0 0 0 0 0 0 0 0 0 0 0 0 0 0 0 0.25 0"/>
<feBlend mode="normal" in2="shape" result="effect1_innerShadow_14_1125"/>
</filter>
</defs>
</svg>
