<svg width="19" height="19" viewBox="0 0 19 19" fill="none" xmlns="http://www.w3.org/2000/svg">
<path d="M18.7749 17.2338C17.3937 14.875 15.2652 13.1837 12.7811 12.3819C14.0098 11.6594 14.9645 10.5584 15.4984 9.2481C16.0324 7.93777 16.1161 6.49053 15.7368 5.12864C15.3575 3.76675 14.5361 2.5655 13.3987 1.70938C12.2614 0.853252 10.8709 0.389587 9.44098 0.389587C8.01102 0.389587 6.6206 0.853252 5.48324 1.70938C4.34588 2.5655 3.52447 3.76675 3.14515 5.12864C2.76583 6.49053 2.84957 7.93777 3.38353 9.2481C3.91748 10.5584 4.87211 11.6594 6.10083 12.3819C3.6168 13.1828 1.48827 14.8741 0.107049 17.2338C0.0563965 17.3154 0.0227994 17.4061 0.00823946 17.5008C-0.00632049 17.5954 -0.00154834 17.6919 0.0222743 17.7847C0.046097 17.8774 0.0884877 17.9646 0.146945 18.0409C0.205403 18.1172 0.278743 18.1812 0.362639 18.229C0.446535 18.2769 0.539286 18.3077 0.635422 18.3196C0.731558 18.3315 0.82913 18.3242 0.922381 18.2982C1.01563 18.2723 1.10267 18.2281 1.17837 18.1684C1.25407 18.1087 1.31689 18.0346 1.36312 17.9504C3.07174 15.0336 6.09176 13.2921 9.44098 13.2921C12.7902 13.2921 15.8102 15.0336 17.5188 17.9504C17.5651 18.0346 17.6279 18.1087 17.7036 18.1684C17.7793 18.2281 17.8663 18.2723 17.9596 18.2982C18.0528 18.3242 18.1504 18.3315 18.2465 18.3196C18.3427 18.3077 18.4354 18.2769 18.5193 18.229C18.6032 18.1812 18.6766 18.1172 18.735 18.0409C18.7935 17.9646 18.8359 17.8774 18.8597 17.7847C18.8835 17.6919 18.8883 17.5954 18.8737 17.5008C18.8592 17.4061 18.8256 17.3154 18.7749 17.2338ZM4.36228 6.84206C4.36228 5.84985 4.66014 4.87992 5.21819 4.05493C5.77625 3.22994 6.56943 2.58694 7.49744 2.20724C8.42546 1.82754 9.44661 1.72819 10.4318 1.92176C11.417 2.11533 12.3219 2.59312 13.0322 3.29472C13.7424 3.99632 14.2261 4.89021 14.4221 5.86335C14.6181 6.83649 14.5175 7.84518 14.1331 8.76186C13.7487 9.67854 13.0977 10.462 12.2626 11.0133C11.4274 11.5645 10.4455 11.8588 9.44098 11.8588C8.09447 11.8573 6.80351 11.3283 5.85139 10.3878C4.89926 9.44732 4.36372 8.17213 4.36228 6.84206Z" fill="#A4A4A4"/>
</svg>
