<svg width="117" height="100" viewBox="0 0 117 100" fill="none" xmlns="http://www.w3.org/2000/svg">
<g filter="url(#filter0_i_14_1237)">
<path d="M71.9462 44.4568L73.0666 45.2144L74.1869 44.4567C76.5484 42.8597 79.2152 42.0215 81.9158 41.9999C84.2663 41.9814 86.6009 42.5817 88.7403 43.7702C90.8817 44.9597 92.7776 46.7117 94.2644 48.9097C95.7517 51.1083 96.7834 53.6859 97.2644 56.4439C97.7455 59.2019 97.6601 62.0502 97.0162 64.7617C96.3724 67.4732 95.1912 69.9595 93.5809 72.0317C91.9713 74.1031 89.9818 75.6987 87.7814 76.7163C85.5831 77.733 83.222 78.1513 80.8774 77.9506C78.5321 77.7498 76.2421 76.9329 74.1867 75.5432L73.0664 74.7857L71.9462 75.5432C69.5935 77.1341 66.9378 77.9719 64.2474 77.9993C61.5572 78.0267 58.8904 77.2433 56.5153 75.7021C54.1372 74.1589 52.1288 71.9046 50.7199 69.1428C49.3107 66.3803 48.5608 63.225 48.5608 60C48.5608 56.775 49.3107 53.6197 50.7199 50.8572C52.1288 48.0953 54.1372 45.8411 56.5153 44.2979C58.8904 42.7566 61.5572 41.9733 64.2474 42.0007C66.9378 42.0281 69.5935 42.8659 71.9462 44.4568ZM65.538 68.6573L67.3445 68.4817V66.6667V66.1333V65.8209L67.2492 65.5233C66.0525 61.7867 66.0525 57.6799 67.2492 53.9433L68.0053 51.5826L65.538 51.3427C65.1106 51.3012 64.6808 51.2983 64.2531 51.334C62.1174 51.3628 60.1345 52.3436 58.7101 53.9668C57.2716 55.6062 56.5 57.7797 56.5 60C56.5 62.2203 57.2716 64.3938 58.7101 66.0332C60.1345 67.6564 62.1174 68.6372 64.2531 68.666C64.6808 68.7017 65.1106 68.6988 65.538 68.6573ZM17.55 2H99.45C103.483 2 107.414 3.82376 110.356 7.177C113.306 10.5386 115 15.1478 115 20V80C115 84.8522 113.306 89.4614 110.356 92.823C107.414 96.1762 103.483 98 99.45 98H17.55C13.5165 98 9.58603 96.1762 6.64357 92.823C3.69375 89.4614 2 84.8522 2 80V20C2 15.1478 3.69375 10.5386 6.64357 7.177C9.58603 3.82376 13.5165 2 17.55 2ZM105.09 86.0332C106.528 84.3938 107.3 82.2203 107.3 80V20C107.3 17.7797 106.528 15.6062 105.09 13.9668C103.644 12.3191 101.623 11.3333 99.45 11.3333H17.55C15.3774 11.3333 13.356 12.3191 11.9101 13.9668C10.4716 15.6062 9.7 17.7797 9.7 20V80C9.7 82.2203 10.4716 84.3938 11.9101 86.0332C13.356 87.6809 15.3774 88.6667 17.55 88.6667H99.45C101.623 88.6667 103.644 87.6809 105.09 86.0332ZM77.4383 67.1343C78.7317 68.1192 80.2845 68.6667 81.9 68.6667C84.0726 68.6667 86.094 67.6809 87.5399 66.0332C88.9784 64.3938 89.75 62.2203 89.75 60C89.75 58.3398 89.319 56.6995 88.4894 55.2846C87.659 53.8683 86.4532 52.7217 84.9924 52.0322C83.5264 51.3402 81.8945 51.1532 80.3166 51.5109C78.7424 51.8677 77.337 52.7396 76.2601 53.9668C75.1854 55.1915 74.4772 56.7225 74.1922 58.3555C73.9072 59.9885 74.0518 61.6833 74.6156 63.2344C75.1795 64.786 76.1489 66.1526 77.4383 67.1343Z" stroke="white" stroke-width="4"/>
</g>
<defs>
<filter id="filter0_i_14_1237" x="0" y="0" width="117" height="104" filterUnits="userSpaceOnUse" color-interpolation-filters="sRGB">
<feFlood flood-opacity="0" result="BackgroundImageFix"/>
<feBlend mode="normal" in="SourceGraphic" in2="BackgroundImageFix" result="shape"/>
<feColorMatrix in="SourceAlpha" type="matrix" values="0 0 0 0 0 0 0 0 0 0 0 0 0 0 0 0 0 0 127 0" result="hardAlpha"/>
<feOffset dy="4"/>
<feGaussianBlur stdDeviation="2"/>
<feComposite in2="hardAlpha" operator="arithmetic" k2="-1" k3="1"/>
<feColorMatrix type="matrix" values="0 0 0 0 0 0 0 0 0 0 0 0 0 0 0 0 0 0 0.25 0"/>
<feBlend mode="normal" in2="shape" result="effect1_innerShadow_14_1237"/>
</filter>
</defs>
</svg>
