<svg width="121" height="121" viewBox="0 0 121 121" fill="none" xmlns="http://www.w3.org/2000/svg">
<g filter="url(#filter0_i_14_2434)">
<path d="M43.4548 4C27.5992 4.35684 18.3391 5.87342 12.0111 12.1776C6.46816 17.6968 4.61853 25.4581 4 37.9M77.5452 4C93.4008 4.35684 102.661 5.87342 108.989 12.1776C114.532 17.6968 116.381 25.4581 117 37.9M77.5452 117C93.4008 116.643 102.661 115.127 108.989 108.822C114.532 103.303 116.381 95.5419 117 83.1M43.4548 117C27.5992 116.643 18.3391 115.127 12.0111 108.822C6.46816 103.303 4.61853 95.5419 4 83.1M33.7368 90.2368C47.6061 75.7134 73.2452 75.0294 87.2632 90.2368M75.3387 45.6316C75.3387 53.8389 68.6776 60.5 60.4524 60.5C58.4979 60.5031 56.5619 60.1209 54.7552 59.375C52.9486 58.6292 51.3067 57.5345 49.9235 56.1536C48.5403 54.7726 47.443 53.1324 46.6943 51.327C45.9456 49.5215 45.5602 47.5861 45.5602 45.6316C45.5602 37.4242 52.2213 30.7632 60.4524 30.7632C62.4065 30.7608 64.3418 31.1437 66.1478 31.8898C67.9538 32.636 69.595 33.7308 70.9775 35.1117C72.3601 36.4926 73.4569 38.1325 74.2052 39.9376C74.9535 41.7426 75.3387 43.6775 75.3387 45.6316Z" stroke="white" stroke-width="7" stroke-linecap="round" stroke-linejoin="round"/>
</g>
<defs>
<filter id="filter0_i_14_2434" x="0.5" y="0.5" width="120" height="124" filterUnits="userSpaceOnUse" color-interpolation-filters="sRGB">
<feFlood flood-opacity="0" result="BackgroundImageFix"/>
<feBlend mode="normal" in="SourceGraphic" in2="BackgroundImageFix" result="shape"/>
<feColorMatrix in="SourceAlpha" type="matrix" values="0 0 0 0 0 0 0 0 0 0 0 0 0 0 0 0 0 0 127 0" result="hardAlpha"/>
<feOffset dy="4"/>
<feGaussianBlur stdDeviation="2"/>
<feComposite in2="hardAlpha" operator="arithmetic" k2="-1" k3="1"/>
<feColorMatrix type="matrix" values="0 0 0 0 0 0 0 0 0 0 0 0 0 0 0 0 0 0 0.25 0"/>
<feBlend mode="normal" in2="shape" result="effect1_innerShadow_14_2434"/>
</filter>
</defs>
</svg>
